<svg xmlns="http://www.w3.org/2000/svg" viewBox="0 0 455.925 284.327">
	<defs />
	<text style="line-height:1.25" x="-95.387" y="48.488" stroke-width="1.287" font-family="sans-serif" font-size="51.48" font-weight="400" letter-spacing="0" transform="translate(213.05 53.4)" word-spacing="0">
		<tspan x="-95.387" y="48.488" fill="#a3a3a3" font-size="137.281">
			404
		</tspan>
	</text>
	<g transform="translate(213.05 53.4)">
		<path fill="none" stroke="#555" stroke-linecap="round" stroke-width="7.934" d="M-209.05 201.15s16.918-24.5 43.062-24.782c26.143-.28 32.538 2.181 54.99-7.611 22.454-9.792 36.03-3.861 36.03-3.861" />
		<path fill="#ccc" d="M-51.912 138.714a11.731 24.532 0 01.019.002 11.731 24.532 0 00-5.685 3.113l-.002-.006-.052.076a11.731 24.532 0 00-1.383 1.939c-1.83 2.503-5.05 6.648-7.436 8.257-3.761 2.536-12.35 3.717-12.35 3.717a2.359 7.434 0 00-2.356 7.434 2.359 7.434 0 002.356 7.433s8.589 1.182 12.35 3.718c2.323 1.566 5.438 5.54 7.292 8.061a11.731 24.532 0 001.445 2.017l.134.193.009-.023a11.731 24.532 0 005.686 3.131 11.731 24.532 0 01-.028.002h20.784v-49.064h-20.736z" />
		<path fill="#3c3c3c" d="M-35.454 135.653a13.8 27.592 0 00-.007.001h-.051l.004.003a13.8 27.592 0 00-13.746 27.59 13.8 27.592 0 0013.748 27.586l-.006.005h5.022l-1.475-.915a13.8 27.592 0 0010.31-26.677 13.8 27.592 0 00-10.325-26.668l1.49-.924h-4.96a13.8 27.592 0 00-.004 0z" />
		<ellipse cx="-30.548" cy="163.244" fill="#555" rx="13.8" ry="27.592" />
		<path fill="#ccc" d="M-31.129 148.584v.001a1.985 3.969 0 00-1.977 3.968 1.985 3.969 0 001.977 3.968v.001H-6.75v-.004a3.544 3.969 0 003.459-3.965 3.544 3.969 0 00-3.441-3.963v-.006h-24.389zM-31.129 169.966a1.985 3.969 0 00-1.977 3.969 1.985 3.969 0 001.977 3.968H-6.75v-.003a3.544 3.969 0 003.459-3.966 3.544 3.969 0 00-3.441-3.963v-.006h-24.389z" />
	</g>
	<path fill="none" stroke="#378bab" stroke-linecap="round" stroke-width="7.934" d="M317.825 256.819s23.065 5.432 49.208 5.151c26.144-.28 26.391-27.753 48.844-37.546 22.453-9.792 36.03-3.86 36.03-3.86" />
	<g transform="translate(244.587 101.508)">
		<g transform="translate(0 -47.575)">
			<path fill="#0cf" d="M46.483 178.27a11.731 24.532 0 00-.02.002 11.731 24.532 0 015.685 3.113l.003-.006.051.076a11.731 24.532 0 011.384 1.938c1.83 2.504 5.05 6.649 7.436 8.258 3.761 2.535 12.35 3.717 12.35 3.717a2.359 7.434 0 012.355 7.434 2.359 7.434 0 01-2.356 7.433s-8.588 1.182-12.349 3.718c-2.323 1.566-5.438 5.54-7.292 8.06a11.731 24.532 0 01-1.445 2.017l-.134.194-.01-.023a11.731 24.532 0 01-5.685 3.131 11.731 24.532 0 00.027.002H25.7v-49.065h20.736z" />
			<path fill="#2ca089" d="M30.025 175.21a13.8 27.592 0 01.007 0h.05l-.004.003a13.8 27.592 0 0113.747 27.589 13.8 27.592 0 01-13.749 27.587l.007.005H25.06l1.475-.915a13.8 27.592 0 01-10.31-26.677 13.8 27.592 0 0110.324-26.668l-1.49-.924h4.96a13.8 27.592 0 01.005 0z" />
			<ellipse cx="-25.118" cy="202.802" fill="#37c8ab" rx="13.8" ry="27.592" transform="scale(-1 1)" />
		</g>
		<ellipse cx="25.268" cy="144.614" fill="#f60" rx="2.117" ry="4.233" />
		<ellipse cx="25.268" cy="165.996" fill="#f60" rx="2.117" ry="4.233" />
	</g>
	<text style="line-height:1.25" x="-138.025" y="106.5" stroke-width=".265" font-family="sans-serif" font-size="10.583" font-weight="400" letter-spacing="0" transform="translate(213.05 53.4)" word-spacing="0">
		<tspan x="-138.025" y="106.5" fill="#a3a3a3" font-size="25.4">
			PÁGINA NÃO ENCONTRADA
		</tspan>
	</text>
</svg>
