<?xml version="1.0" encoding="UTF-8" standalone="no"?>
<!-- Created with Inkscape (http://www.inkscape.org/) -->

<svg
   xmlns:dc="http://purl.org/dc/elements/1.1/"
   xmlns:cc="http://creativecommons.org/ns#"
   xmlns:rdf="http://www.w3.org/1999/02/22-rdf-syntax-ns#"
   xmlns:svg="http://www.w3.org/2000/svg"
   xmlns="http://www.w3.org/2000/svg"
   xmlns:sodipodi="http://sodipodi.sourceforge.net/DTD/sodipodi-0.dtd"
   xmlns:inkscape="http://www.inkscape.org/namespaces/inkscape"
   width="992.60455"
   height="576.3017"
   viewBox="0 0 262.62662 152.47983"
   version="1.1"
   id="svg8"
   sodipodi:docname="cloud.svg"
   inkscape:version="0.92.4 5da689c313, 2019-01-14">
  <defs
     id="defs2">
    <filter
       inkscape:collect="always"
       style="color-interpolation-filters:sRGB"
       id="filter946"
       x="-0.063979864"
       width="1.1279597"
       y="-0.34618843"
       height="1.6923769">
      <feGaussianBlur
         inkscape:collect="always"
         stdDeviation="6.2069351"
         id="feGaussianBlur948" />
    </filter>
  </defs>
  <sodipodi:namedview
     id="base"
     pagecolor="#000000"
     bordercolor="#666666"
     borderopacity="1.0"
     inkscape:pageopacity="0"
     inkscape:pageshadow="2"
     inkscape:zoom="0.175"
     inkscape:cx="95.62071"
     inkscape:cy="16.477315"
     inkscape:document-units="px"
     inkscape:current-layer="layer1"
     showgrid="false"
     units="px"
     inkscape:object-paths="true"
     inkscape:snap-intersection-paths="true"
     inkscape:window-width="1366"
     inkscape:window-height="705"
     inkscape:window-x="0"
     inkscape:window-y="26"
     inkscape:window-maximized="1" />
  <metadata
     id="metadata5">
    <rdf:RDF>
      <cc:Work
         rdf:about="">
        <dc:format>image/svg+xml</dc:format>
        <dc:type
           rdf:resource="http://purl.org/dc/dcmitype/StillImage" />
        <dc:title></dc:title>
      </cc:Work>
    </rdf:RDF>
  </metadata>
  <g
     inkscape:label="Camada 1"
     inkscape:groupmode="layer"
     id="layer1"
     transform="translate(-604.52635,-116.88279)">
    <path
       id="path92"
       d="m 689.64869,116.88279 a 70.225644,70.681545 0 0 0 -69.9022,64.45653 h -0.3235 v 6.22494 25.3354 1.98696 17.97875 c 0,14.06076 11.31961,25.38036 25.38036,25.38036 h 44.84534 1.03508 104.76725 31.42496 c 14.06075,0 25.38034,-11.3196 25.38034,-25.38036 v -2.85977 -17.10594 -13.99604 -2.44533 h -0.12142 a 58.959503,59.342265 0 0 0 -58.83775,-56.89679 58.959503,59.342265 0 0 0 -40.80216,16.52871 70.225644,70.681545 0 0 0 -62.8463,-39.20742 z"
       style="opacity:1;fill:#f3f7f9;fill-opacity:1;stroke:none;stroke-width:9.23050308;stroke-linecap:round;stroke-miterlimit:4;stroke-dasharray:none;stroke-opacity:1"
       inkscape:connector-curvature="0" />
    <path
       inkscape:connector-curvature="0"
       id="path900"
       d="m 619.42299,211.43552 v 17.65009 c 0,14.06076 11.31962,25.38036 25.38037,25.38036 h 44.84534 1.03507 104.76725 31.42496 c 14.06075,0 25.38034,-11.3196 25.38034,-25.38036 v -2.85977 -14.79032 z"
       style="opacity:1;fill:#333333;fill-opacity:1;stroke:none;stroke-width:9.23050308;stroke-linecap:round;stroke-miterlimit:4;stroke-dasharray:none;stroke-opacity:1;filter:url(#filter946)" />
    <path
       style="opacity:1;fill:#cddde9;fill-opacity:1;stroke:none;stroke-width:9.23050308;stroke-linecap:round;stroke-miterlimit:4;stroke-dasharray:none;stroke-opacity:1"
       d="m 619.42299,215.21528 v 17.65009 c 0,14.06076 11.31962,25.38036 25.38037,25.38036 h 44.84534 1.03507 104.76725 31.42496 c 14.06075,0 25.38034,-11.3196 25.38034,-25.38036 v -2.85977 -14.79032 z"
       id="path10"
       inkscape:connector-curvature="0" />
  </g>
</svg>
