<?xml version="1.0" encoding="UTF-8" standalone="no"?>
<!-- Created with Inkscape (http://www.inkscape.org/) -->

<svg
   xmlns:dc="http://purl.org/dc/elements/1.1/"
   xmlns:cc="http://creativecommons.org/ns#"
   xmlns:rdf="http://www.w3.org/1999/02/22-rdf-syntax-ns#"
   xmlns:svg="http://www.w3.org/2000/svg"
   xmlns="http://www.w3.org/2000/svg"
   xmlns:sodipodi="http://sodipodi.sourceforge.net/DTD/sodipodi-0.dtd"
   xmlns:inkscape="http://www.inkscape.org/namespaces/inkscape"
   width="526.25208mm"
   height="173.57088mm"
   viewBox="0 0 526.25208 173.57088"
   version="1.1"
   id="svg3801"
   inkscape:version="0.92.4 (fd57863, 2020-04-02)"
   sodipodi:docname="cloud.svg">
  <defs
     id="defs3795" />
  <sodipodi:namedview
     id="base"
     pagecolor="#ffffff"
     bordercolor="#666666"
     borderopacity="1.0"
     inkscape:pageopacity="0.0"
     inkscape:pageshadow="2"
     inkscape:zoom="0.35"
     inkscape:cx="938.88252"
     inkscape:cy="250.77117"
     inkscape:document-units="mm"
     inkscape:current-layer="layer1"
     showgrid="false"
     inkscape:window-width="1366"
     inkscape:window-height="732"
     inkscape:window-x="0"
     inkscape:window-y="0"
     inkscape:window-maximized="1" />
  <metadata
     id="metadata3798">
    <rdf:RDF>
      <cc:Work
         rdf:about="">
        <dc:format>image/svg+xml</dc:format>
        <dc:type
           rdf:resource="http://purl.org/dc/dcmitype/StillImage" />
        <dc:title></dc:title>
      </cc:Work>
    </rdf:RDF>
  </metadata>
  <g
     inkscape:label="Camada 1"
     inkscape:groupmode="layer"
     id="layer1"
     transform="translate(6.9572366,-83.599593)">
    <path
       style="fill:#ffffff;stroke:none;stroke-width:0.26458332px;stroke-linecap:butt;stroke-linejoin:miter;stroke-opacity:1"
       d="m 15.119047,123.13095 c 34.547183,-23.133758 86.422733,-11.76468 124.732143,0 73.42154,-62.593597 143.76093,-43.509963 213.17856,0 54.76985,-25.828589 113.24345,-34.923219 148.16667,0 24.94516,24.94516 24.94516,80.88817 0,105.83333 -40.62497,40.62497 -113.3911,12.61393 -172.35715,0 -54.92121,31.52352 -113.24093,44.59794 -182.18451,0 -42.76835,2.80539 -101.22178,31.29261 -132.291665,0 -24.856542,-25.03472 -34.106152,-82.48869 0.755952,-105.83333 z"
       id="path4348"
       inkscape:connector-curvature="0"
       sodipodi:nodetypes="sccaaccas" />
    <path
       style="opacity:1;fill:#ffffff;fill-opacity:1;stroke:none;stroke-width:22.8571434;stroke-linecap:round;stroke-linejoin:miter;stroke-miterlimit:4;stroke-dasharray:none;stroke-dashoffset:52.9133873;stroke-opacity:1;paint-order:normal"
       d="m 831.87919,969.12981 c -83.716,-9.47457 -169.68762,-40.76117 -257.14285,-93.57888 l -21.42857,-12.94157 -41.42858,6.04865 c -22.78571,3.32678 -71.64285,12.50858 -108.57142,20.404 -118.05418,25.24035 -132.36,27.2848 -191.42858,27.35723 -42.34736,0.052 -56.54976,-0.96097 -71.42857,-5.0942 C 70.739161,891.95967 21.921669,841.35996 -7.4637855,758.01061 -21.686429,717.6693 -26.425677,689.62213 -26.292343,646.58204 -26.005947,554.13425 9.8635777,490.52335 83.053649,452.6682 129.46958,428.66109 179.97372,417.78909 246.16491,417.55534 c 77.33546,-0.27311 149.84723,11.48061 251.72526,40.80313 l 30.29668,8.71999 35.4176,-26.81999 c 79.1636,-59.94666 148.8336,-94.04994 228.75437,-111.97472 121.56149,-27.26401 244.50408,-9.5636 389.52038,56.08043 34.7819,15.74461 93.6252,47.18045 128.0835,68.42596 12.303,7.58555 23.2896,13.7919 24.4147,13.7919 1.1251,0 16.4682,-6.37557 34.0958,-14.16793 155.3163,-68.65847 301.5704,-88.70137 406.2631,-55.67495 93.1906,29.39796 153.8439,90.99588 176.9607,179.71673 17.5541,67.37147 13.9066,146.04107 -9.6761,208.69758 -29.3416,77.95709 -94.7155,130.32457 -187.8719,150.49394 -24.9062,5.39246 -38.1678,6.36866 -86.5555,6.37152 -89.6827,0.006 -128.762,-7.1984 -417.1429,-76.89412 -3.563,-0.86111 -27.2265,9.30855 -62.8571,27.01369 -76.1853,37.85703 -125.4766,55.67914 -189.73365,68.6014 -55.28897,11.11877 -115.13828,14.144 -165.98066,8.38991 z"
       id="path4350"
       inkscape:connector-curvature="0"
       transform="scale(0.26458333)" />
  </g>
</svg>
