<?xml version="1.0" encoding="UTF-8" standalone="no"?>
<!-- Created with Inkscape (http://www.inkscape.org/) -->

<svg
   xmlns:dc="http://purl.org/dc/elements/1.1/"
   xmlns:cc="http://creativecommons.org/ns#"
   xmlns:rdf="http://www.w3.org/1999/02/22-rdf-syntax-ns#"
   xmlns:svg="http://www.w3.org/2000/svg"
   xmlns="http://www.w3.org/2000/svg"
   xmlns:sodipodi="http://sodipodi.sourceforge.net/DTD/sodipodi-0.dtd"
   xmlns:inkscape="http://www.inkscape.org/namespaces/inkscape"
   width="261.98798"
   height="268.08444"
   viewBox="0 0 69.31765 70.930677"
   version="1.1"
   id="svg8"
   sodipodi:docname="compass.svg"
   inkscape:version="0.92.4 (fd57863, 2020-04-02)">
  <defs
     id="defs2" />
  <sodipodi:namedview
     id="base"
     pagecolor="#ffffff"
     bordercolor="#666666"
     borderopacity="1.0"
     inkscape:pageopacity="0.0"
     inkscape:pageshadow="2"
     inkscape:zoom="1.979899"
     inkscape:cx="68.447424"
     inkscape:cy="233.33718"
     inkscape:document-units="px"
     inkscape:current-layer="layer1"
     showgrid="false"
     units="px"
     inkscape:object-paths="true"
     inkscape:snap-intersection-paths="true"
     inkscape:window-width="1366"
     inkscape:window-height="732"
     inkscape:window-x="0"
     inkscape:window-y="0"
     inkscape:window-maximized="1"
     inkscape:snap-nodes="true"
     inkscape:snap-smooth-nodes="true" />
  <metadata
     id="metadata5">
    <rdf:RDF>
      <cc:Work
         rdf:about="">
        <dc:format>image/svg+xml</dc:format>
        <dc:type
           rdf:resource="http://purl.org/dc/dcmitype/StillImage" />
        <dc:title />
      </cc:Work>
    </rdf:RDF>
  </metadata>
  <g
     inkscape:label="Camada 1"
     inkscape:groupmode="layer"
     id="layer1"
     transform="translate(-80.268379,-54.943729)">
    <path
       style="opacity:1;fill:#939dac;fill-opacity:1;stroke:#000000;stroke-width:0.13229166;stroke-linecap:round;stroke-linejoin:miter;stroke-miterlimit:4;stroke-dasharray:none;stroke-dashoffset:52.9133873;stroke-opacity:1;paint-order:normal"
       d="m 116.35064,67.283229 -35.988961,41.634731 1.825164,1.57753 -1.504237,4.18742 3.925205,-2.09435 2.15925,1.86617 30.452189,-35.229349 15.28355,43.986999 2.61365,-0.90804 2.87435,3.39635 0.14909,-4.44691 2.36059,-0.82022 -18.06237,-51.984679 -3.38019,1.174289 z"
       id="rect817"
       inkscape:connector-curvature="0" />
    <circle
       style="opacity:1;fill:#939dac;fill-opacity:1;stroke:#000000;stroke-width:0.13229167;stroke-linecap:round;stroke-linejoin:miter;stroke-miterlimit:10;stroke-dasharray:none;stroke-dashoffset:52.9133873;stroke-opacity:1;paint-order:normal"
       id="circle847"
       cx="130.17375"
       cy="35.394119"
       r="4.2333331"
       transform="rotate(10.839993)" />
    <path
       style="color:#000000;font-style:normal;font-variant:normal;font-weight:normal;font-stretch:normal;font-size:medium;line-height:normal;font-family:sans-serif;font-variant-ligatures:normal;font-variant-position:normal;font-variant-caps:normal;font-variant-numeric:normal;font-variant-alternates:normal;font-feature-settings:normal;text-indent:0;text-align:start;text-decoration:none;text-decoration-line:none;text-decoration-style:solid;text-decoration-color:#000000;letter-spacing:normal;word-spacing:normal;text-transform:none;writing-mode:lr-tb;direction:ltr;text-orientation:mixed;dominant-baseline:auto;baseline-shift:baseline;text-anchor:start;white-space:normal;shape-padding:0;clip-rule:nonzero;display:inline;overflow:visible;visibility:visible;opacity:1;isolation:auto;mix-blend-mode:normal;color-interpolation:sRGB;color-interpolation-filters:linearRGB;solid-color:#000000;solid-opacity:1;vector-effect:none;fill:#6f8a91;fill-opacity:1;fill-rule:nonzero;stroke:#000000;stroke-width:0.13229166;stroke-linecap:round;stroke-linejoin:miter;stroke-miterlimit:10;stroke-dasharray:none;stroke-dashoffset:52.9133873;stroke-opacity:1;paint-order:normal;color-rendering:auto;image-rendering:auto;shape-rendering:auto;text-rendering:auto;enable-background:accumulate"
       d="m 146.26417,74.610687 a 4.2337563,4.2337563 0 0 0 -5.09707,3.136406 c -3.03965,11.986457 -14.80248,19.470238 -26.9477,17.144627 -2.98157,-0.570922 -5.82272,-1.719563 -8.3635,-3.380924 -2.01145,-1.315238 -3.80727,-2.934005 -5.3234,-4.798699 a 4.2337563,4.2337563 0 1 0 -6.569025,5.341673 c 1.989508,2.446899 4.339141,4.57325 6.957135,6.329052 a 4.2337563,4.2337563 0 0 0 0.30145,0.214517 4.2337563,4.2337563 0 0 0 0.41815,0.24528 c 3.35955,2.124091 7.0803,3.616641 10.98689,4.364691 16.46524,3.15282 32.62586,-7.128909 36.74669,-23.378928 a 4.2337563,4.2337563 0 0 0 -3.10962,-5.217695 z m -0.73269,3.405972 a 1.0271606,1.0271606 0 0 1 0.81579,1.202204 1.0271606,1.0271606 0 0 1 -0.0359,0.132553 c -3.80462,14.438403 -18.22161,23.678764 -33.10464,20.828904 -5.12655,-0.981652 -9.67201,-3.276223 -13.354836,-6.468126 l 1.336176,-1.545691 c 3.41891,2.958731 7.63986,5.085469 12.40468,5.997856 13.8386,2.649861 27.20021,-5.910133 30.73501,-19.3322 l 0.002,3.89e-4 a 1.0271606,1.0271606 0 0 1 1.2017,-0.815889 z"
       id="circle865"
       inkscape:connector-curvature="0" />
    <circle
       cy="48.434288"
       cx="130.02713"
       id="circle823"
       style="opacity:1;fill:#6f8a91;fill-opacity:1;stroke:#000000;stroke-width:0.13229167;stroke-linecap:round;stroke-linejoin:miter;stroke-miterlimit:10;stroke-dasharray:none;stroke-dashoffset:52.9133873;stroke-opacity:1;paint-order:normal"
       r="13.758333"
       transform="rotate(10.839993)" />
    <circle
       style="opacity:1;fill:#536c67;fill-opacity:1;stroke:#000000;stroke-width:0.13229167;stroke-linecap:round;stroke-linejoin:miter;stroke-miterlimit:10;stroke-dasharray:none;stroke-dashoffset:52.9133873;stroke-opacity:1;paint-order:normal"
       id="circle896"
       cx="115.77289"
       cy="71.953896"
       r="4.2333331"
       transform="rotate(10.839993)" />
    <circle
       style="opacity:1;fill:#536c67;fill-opacity:1;stroke:#000000;stroke-width:0.13229167;stroke-linecap:round;stroke-linejoin:miter;stroke-miterlimit:10;stroke-dasharray:none;stroke-dashoffset:52.9133873;stroke-opacity:1;paint-order:normal"
       id="path815"
       cx="143.69527"
       cy="71.765465"
       r="7.4083333"
       transform="rotate(10.839993)" />
    <circle
       r="4.2333331"
       cy="71.765465"
       cx="143.69527"
       id="circle894"
       style="opacity:1;fill:#6f8a91;fill-opacity:1;stroke:#000000;stroke-width:0.13229167;stroke-linecap:round;stroke-linejoin:miter;stroke-miterlimit:10;stroke-dasharray:none;stroke-dashoffset:52.9133873;stroke-opacity:1;paint-order:normal"
       transform="rotate(10.839993)" />
    <circle
       transform="rotate(10.839993)"
       r="8.8093758"
       style="opacity:1;fill:#536c67;fill-opacity:1;stroke:#000000;stroke-width:0.08470554;stroke-linecap:round;stroke-linejoin:miter;stroke-miterlimit:10;stroke-dasharray:none;stroke-dashoffset:52.9133873;stroke-opacity:1;paint-order:normal"
       id="circle2621"
       cx="130.02713"
       cy="48.434288" />
  </g>
</svg>
