<?xml version="1.0" encoding="UTF-8" standalone="no"?>
<!-- Created with Inkscape (http://www.inkscape.org/) -->

<svg
   xmlns:dc="http://purl.org/dc/elements/1.1/"
   xmlns:cc="http://creativecommons.org/ns#"
   xmlns:rdf="http://www.w3.org/1999/02/22-rdf-syntax-ns#"
   xmlns:svg="http://www.w3.org/2000/svg"
   xmlns="http://www.w3.org/2000/svg"
   xmlns:xlink="http://www.w3.org/1999/xlink"
   xmlns:sodipodi="http://sodipodi.sourceforge.net/DTD/sodipodi-0.dtd"
   xmlns:inkscape="http://www.inkscape.org/namespaces/inkscape"
   width="253.45029mm"
   height="216.89783mm"
   viewBox="0 0 253.45029 216.89783"
   version="1.1"
   id="svg8"
   inkscape:version="0.92.4 (fd57863, 2020-04-02)"
   sodipodi:docname="desenhando.svg">
  <style
     id="style815">
    #path895 {
      animation: e1-path 10s ease forwards;
      animation-iteration-count: 2;
      animation-delay: 3s;
    }
    #path897 {
      animation: c-path 10s ease forwards;
      animation-iteration-count: 2;
      animation-delay: 3s;
    }

    #path899 {
      animation: l-path 10s ease forwards;
      animation-iteration-count: 2;
      animation-delay: 3s;
    }

    #path901 {
      animation: a-path 10s ease forwards;
      animation-iteration-count: 2;
      animation-delay: 3s;
    }

    #path903 {
      animation: s1-path 10s ease forwards;
      animation-iteration-count: 2;
      animation-delay: 3s;
    }

    #path905 {
      animation: s2-path 10s ease forwards;
      animation-iteration-count: 2;
      animation-delay: 3s;
    }

    #path907 {
      animation: e2-path 10s ease forwards;
      animation-iteration-count: 2;
      animation-delay: 3s;
    }


    @keyframes e1-path {
      0% {
        transform: translateX(0px);
      }
      9% {
        transform: translateX(0px);
      }

      12% {
        transform: translateX(100px);
      }
      24% {
        transform: translateX(100px);
      }
      27% {
        transform: translateX(50px);
      }

      30% {
        transform: translateX(0px);
      }
      100% {
        transform: translateX(0px);
      }
    }

    @keyframes c-path {
      0% {
        transform: translateX(0px);
      }
      3% {
        transform: translateX(100px);
      }

      18% {
        transform: translateX(100px);
      }

      24% {
        transform: translateX(100px);
      }
      27% {
        transform: translateX(50px);
      }

      30% {
        transform: translateX(0px);
      }
      100% {
        transform: translateX(0px);
      }
    }

    @keyframes l-path {
      0% {
        transform: translateX(0px);
      }
      10% {
        transform: translateX(0px);
      }

      27% {
        transform: translateX(0px);
      }

      30% {
        transform: translateX(-50px);
      }
      97% {
        transform: translateX(-50px);
      }
      100% {
        transform: translateX(0px);
      }
    }

    @keyframes a-path {
      0% {
        transform: translateX(0px);
      }
      20% {
        transform: translateX(0px);
      }
      23% {
        transform: translateX(40px);
      }
      50% {
        transform: translateX(40px);
      }

      53% {
        transform: translateX(0px);
      }
      93% {
        transform: translateX(0px);
      }
      96% {
        transform: translateX(-40px);
      }
      100% {
        transform: translateX(0px);
      }
    }

    @keyframes s1-path {
      0% {
        transform: translateX(0px);
      }
      40% {
        transform: translateX(0px);
      }
      43% {
        transform: translateX(-63px);
      }
      80% {
        transform: translateX(-63px);
      }
      83% {
        transform: translateX(0px);
      }
    }

    @keyframes s2-path {
      0% {
        transform: translateX(0px);
      }
      60% {
        transform: translateX(0px);
      }
      63% {
        transform: translateX(-63px);
      }
      80% {
        transform: translateX(-63px);
      }
      83% {
        transform: translateX(0px);
      }
    }

    @keyframes e2-path {
      0% {
        transform: translateX(0px);
      }
      60% {
        transform: translateX(0px);
      }
      63% {
        transform: translateX(-63px);
      }
      80% {
        transform: translateX(-63px);
      }
      83% {
        transform: translateX(0px);
      }
    }
   </style>
  <defs
     id="defs2">
    <linearGradient
       id="linearGradient971"
       inkscape:collect="always">
      <stop
         id="stop967"
         offset="0"
         style="stop-color:#800000;stop-opacity:1" />
      <stop
         id="stop969"
         offset="1"
         style="stop-color:#000080;stop-opacity:1" />
    </linearGradient>
    <linearGradient
       id="linearGradient965"
       inkscape:collect="always">
      <stop
         id="stop961"
         offset="0"
         style="stop-color:#800000;stop-opacity:1" />
      <stop
         id="stop963"
         offset="1"
         style="stop-color:#000080;stop-opacity:1" />
    </linearGradient>
    <linearGradient
       id="linearGradient959"
       inkscape:collect="always">
      <stop
         id="stop955"
         offset="0"
         style="stop-color:#800000;stop-opacity:1" />
      <stop
         id="stop957"
         offset="1"
         style="stop-color:#000080;stop-opacity:1" />
    </linearGradient>
    <linearGradient
       id="linearGradient953"
       inkscape:collect="always">
      <stop
         id="stop949"
         offset="0"
         style="stop-color:#800000;stop-opacity:1" />
      <stop
         id="stop951"
         offset="1"
         style="stop-color:#000080;stop-opacity:1" />
    </linearGradient>
    <linearGradient
       id="linearGradient947"
       inkscape:collect="always">
      <stop
         id="stop943"
         offset="0"
         style="stop-color:#800000;stop-opacity:1" />
      <stop
         id="stop945"
         offset="1"
         style="stop-color:#000080;stop-opacity:1" />
    </linearGradient>
    <linearGradient
       id="linearGradient941"
       inkscape:collect="always">
      <stop
         id="stop937"
         offset="0"
         style="stop-color:#800000;stop-opacity:1" />
      <stop
         id="stop939"
         offset="1"
         style="stop-color:#000080;stop-opacity:1" />
    </linearGradient>
    <linearGradient
       id="linearGradient935"
       inkscape:collect="always">
      <stop
         id="stop931"
         offset="0"
         style="stop-color:#800000;stop-opacity:1" />
      <stop
         id="stop933"
         offset="1"
         style="stop-color:#000080;stop-opacity:1" />
    </linearGradient>
    <linearGradient
       id="linearGradient932"
       inkscape:collect="always">
      <stop
         id="stop928"
         offset="0"
         style="stop-color:#ffaaaa;stop-opacity:1" />
      <stop
         id="stop930"
         offset="1"
         style="stop-color:#ff0000;stop-opacity:1" />
    </linearGradient>
    <linearGradient
       id="linearGradient926"
       inkscape:collect="always">
      <stop
         id="stop922"
         offset="0"
         style="stop-color:#ffaaaa;stop-opacity:1" />
      <stop
         id="stop924"
         offset="1"
         style="stop-color:#ff0000;stop-opacity:1" />
    </linearGradient>
    <linearGradient
       inkscape:collect="always"
       xlink:href="#linearGradient926"
       id="linearGradient920"
       x1="16.252975"
       y1="48.291668"
       x2="235.85715"
       y2="228.20833"
       gradientUnits="userSpaceOnUse"
       gradientTransform="translate(19.24781,54.977139)" />
    <linearGradient
       inkscape:collect="always"
       xlink:href="#linearGradient932"
       id="linearGradient867"
       gradientUnits="userSpaceOnUse"
       x1="16.252975"
       y1="48.291668"
       x2="235.85715"
       y2="228.20833"
       gradientTransform="translate(-11.816337,49.685474)" />
    <linearGradient
       inkscape:collect="always"
       xlink:href="#linearGradient971"
       id="linearGradient916"
       x1="5.636261"
       y1="28.625982"
       x2="271.73151"
       y2="246.34027"
       gradientUnits="userSpaceOnUse"
       gradientTransform="translate(-18.910057,-34.467053)" />
    <linearGradient
       inkscape:collect="always"
       xlink:href="#linearGradient965"
       id="linearGradient918"
       x1="5.636261"
       y1="28.625982"
       x2="271.73151"
       y2="246.34027"
       gradientUnits="userSpaceOnUse"
       gradientTransform="translate(-18.910057,-34.467053)" />
    <linearGradient
       inkscape:collect="always"
       xlink:href="#linearGradient959"
       id="linearGradient921"
       x1="5.636261"
       y1="28.625982"
       x2="271.73151"
       y2="246.34027"
       gradientUnits="userSpaceOnUse"
       gradientTransform="translate(-18.910057,-34.467053)" />
    <linearGradient
       inkscape:collect="always"
       xlink:href="#linearGradient953"
       id="linearGradient923"
       x1="5.636261"
       y1="28.625982"
       x2="271.73151"
       y2="246.34027"
       gradientUnits="userSpaceOnUse"
       gradientTransform="translate(-18.910057,-34.467053)" />
    <linearGradient
       inkscape:collect="always"
       xlink:href="#linearGradient947"
       id="linearGradient925"
       x1="5.636261"
       y1="28.625982"
       x2="271.73151"
       y2="246.34027"
       gradientUnits="userSpaceOnUse"
       gradientTransform="translate(-18.910057,-34.467053)" />
    <linearGradient
       inkscape:collect="always"
       xlink:href="#linearGradient941"
       id="linearGradient927"
       x1="5.636261"
       y1="28.625982"
       x2="271.73151"
       y2="246.34027"
       gradientUnits="userSpaceOnUse"
       gradientTransform="translate(-18.910057,-34.467053)" />
    <linearGradient
       inkscape:collect="always"
       xlink:href="#linearGradient935"
       id="linearGradient929"
       x1="5.636261"
       y1="28.625982"
       x2="271.73151"
       y2="246.34027"
       gradientUnits="userSpaceOnUse"
       gradientTransform="translate(-18.910057,-34.467053)" />
  </defs>
  <sodipodi:namedview
     id="base"
     pagecolor="#ffffff"
     bordercolor="#666666"
     borderopacity="1.0"
     inkscape:pageopacity="0.0"
     inkscape:pageshadow="2"
     inkscape:zoom="0.49497475"
     inkscape:cx="708.49868"
     inkscape:cy="466.05361"
     inkscape:document-units="mm"
     inkscape:current-layer="layer1"
     showgrid="false"
     inkscape:window-width="1366"
     inkscape:window-height="705"
     inkscape:window-x="0"
     inkscape:window-y="27"
     inkscape:window-maximized="1" />
  <metadata
     id="metadata5">
    <rdf:RDF>
      <cc:Work
         rdf:about="">
        <dc:format>image/svg+xml</dc:format>
        <dc:type
           rdf:resource="http://purl.org/dc/dcmitype/StillImage" />
        <dc:title />
      </cc:Work>
    </rdf:RDF>
  </metadata>
  <g
     inkscape:label="Camada 1"
     inkscape:groupmode="layer"
     id="layer1"
     transform="translate(-0.33334647,-20.510087)">
    <rect
       style="opacity:1;fill:#ac9d93;fill-opacity:1;stroke:none;stroke-width:0.07937501;stroke-linecap:round;stroke-miterlimit:4;stroke-dasharray:none;stroke-opacity:1"
       id="rect831"
       width="215.66481"
       height="5"
       x="19.243404"
       y="78.772644"
       rx="0"
       ry="0" />
    <rect
       ry="0"
       rx="0"
       y="129.04349"
       x="19.243404"
       height="5"
       width="215.66481"
       id="rect833"
       style="opacity:1;fill:#ac9d93;fill-opacity:1;stroke:none;stroke-width:0.07937501;stroke-linecap:round;stroke-miterlimit:4;stroke-dasharray:none;stroke-opacity:1" />
    <rect
       style="opacity:1;fill:#ac9d93;fill-opacity:1;stroke:none;stroke-width:0.07937501;stroke-linecap:round;stroke-miterlimit:4;stroke-dasharray:none;stroke-opacity:1"
       id="rect835"
       width="215.66481"
       height="5"
       x="19.243404"
       y="179.31433"
       rx="0"
       ry="0" />
    <g
       aria-label="eclasse"
       style="font-style:normal;font-weight:normal;font-size:63.7155304px;line-height:1.25;font-family:sans-serif;letter-spacing:0px;word-spacing:0px;fill:#000000;fill-opacity:1;stroke:#ffffff;stroke-width:15;stroke-miterlimit:4;stroke-dasharray:none;stroke-opacity:1"
       id="text875">
      <path
         d="m 63.953222,88.626024 q 0,0.839999 -0.28,1.43111 -0.248889,0.591111 -0.684444,1.057778 -0.404445,0.466666 -0.964444,0.87111 -0.528889,0.404445 -1.088889,0.871111 -0.435555,0.373333 -0.777777,0.56 -0.342222,0.186667 -0.684444,0.311111 -0.311111,0.124444 -0.684445,0.248889 -0.342222,0.124444 -0.808888,0.342222 -0.622222,0.311111 -1.057778,0.591111 -0.404444,0.248889 -0.839999,0.466666 -0.404445,0.217778 -0.902222,0.342222 -0.497778,0.155556 -1.244444,0.248889 -1.244444,0.155556 -2.519999,0.373333 -1.244444,0.217778 -2.488888,0.217778 -0.248889,0 -0.528889,-0.124444 -0.248888,-0.09333 -0.591111,-0.217778 -0.342222,-0.09333 -0.777777,-0.217778 -0.404444,-0.09333 -0.995555,-0.09333 -0.622222,0 -0.995555,-0.186667 -0.373334,-0.186666 -0.684445,-0.435555 -0.279999,-0.248889 -0.59111,-0.528889 -0.311111,-0.311111 -0.808889,-0.528888 -1.866666,-0.84 -3.173332,-2.022222 -1.306666,-1.182222 -2.239999,-2.644443 -0.933333,-1.462222 -1.555555,-3.173332 -0.622222,-1.711111 -1.057777,-3.577777 -0.342223,-1.306666 -0.342223,-2.613332 0,-1.71111 0.808889,-3.173332 -0.311111,-0.871111 -0.311111,-1.679999 0,-0.591111 0.342222,-1.742222 0.342222,-1.182222 0.871111,-2.364443 0.56,-1.182222 1.182222,-2.115555 0.653333,-0.964444 1.213333,-1.182222 0.435555,-0.155555 0.59111,-0.248889 0.186667,-0.124444 0.186667,-0.622222 0,-0.373333 0.28,-0.622222 0.311111,-0.248888 0.715555,-0.404444 0.435556,-0.155555 0.84,-0.28 0.435555,-0.124444 0.715555,-0.248889 1.151111,-0.559999 2.177777,-0.933333 1.057777,-0.404444 2.084444,-0.653333 1.057777,-0.28 2.177777,-0.404444 1.119999,-0.124444 2.395554,-0.124444 0.684444,0 1.337777,0.186666 0.653333,0.186667 1.244444,0.497778 0.622222,0.28 1.213333,0.653333 0.591111,0.342222 1.151111,0.684444 h -0.03111 q 0.466666,0.06222 0.871111,0.28 0.435555,0.186667 0.902221,0.248889 0.435556,0.528888 1.12,1.026666 0.715555,0.466667 1.368888,0.995555 0.684444,0.528889 1.151111,1.151111 0.497778,0.591111 0.497778,1.368888 0,0.124445 -0.03111,0.248889 0,0.124444 -0.03111,0.28 l 0.124445,-0.155556 q 0.124444,0.09333 0.217777,0.311111 0.124445,0.217778 0.217778,0.497778 0.09333,0.248889 0.155556,0.528889 0.06222,0.248888 0.09333,0.404444 0.248889,0.404444 0.653333,0.653333 0.435555,0.248889 0.684444,0.684444 -0.311111,0.311111 -0.311111,0.808889 0,0.528888 0.217778,1.057777 0.217778,0.497778 0.217778,1.026666 0,0.622222 -0.06222,1.213333 -0.06222,0.56 -0.06222,1.182222 0,0.466666 -0.373333,0.715555 -0.342222,0.248889 -0.777777,0.435556 -0.404445,0.186666 -0.746667,0.373333 -0.342222,0.186666 -0.342222,0.528888 0,0.248889 -0.311111,0.248889 -0.28,-0.03111 -0.466666,-0.03111 -1.368889,0 -2.737777,-0.342222 -1.337777,-0.342222 -2.675555,-0.342222 -1.462221,0 -2.893332,0.217778 -1.43111,0.186666 -2.893332,0.186666 -1.088888,0 -2.177777,-0.06222 -1.057777,-0.06222 -2.146666,-0.06222 -0.28,0 -1.057777,0.124444 -0.777778,0.09333 -1.648888,0.28 -0.84,0.155556 -1.617777,0.404444 -0.777778,0.217778 -1.088889,0.435556 -0.03111,0.155555 -0.03111,0.435555 0,1.462222 0.84,3.017777 0.87111,1.555555 2.27111,2.83111 1.399999,1.275555 3.142221,2.115555 1.742221,0.839999 3.515554,0.839999 1.026666,0 2.022221,0.09333 1.026667,0.06222 1.991111,0.435556 0.839999,-0.404444 1.524444,-0.933333 0.715555,-0.528889 1.368888,-1.12 0.653333,-0.591111 1.275555,-1.213332 0.622222,-0.622222 1.275555,-1.244444 0.124444,-0.124445 0.591111,-0.217778 0.497777,-0.124445 1.057777,-0.186667 0.56,-0.09333 1.057778,-0.124444 0.528888,-0.06222 0.715555,-0.06222 0.715555,0 1.337777,0.217777 0.186667,0.715556 0.186667,1.4 z M 59.286557,75.994918 q 0,-0.466667 -0.155556,-0.902222 -0.155555,-0.435556 -0.248888,-0.902222 -0.155556,-0.871111 -0.155556,-1.679999 0,-0.84 -0.248889,-1.68 h -0.03111 q 0,0.186667 -0.124444,0.373333 -0.124445,0.155556 -0.342222,0.155556 -0.373333,0 -0.715555,-0.186667 -0.342223,-0.186666 -0.591111,-0.466666 -1.182222,-0.528889 -2.146666,-0.995555 -0.933333,-0.466667 -1.897777,-0.808889 -0.933333,-0.373333 -2.022222,-0.56 -1.057777,-0.217777 -2.457776,-0.217777 -0.124445,0 -0.248889,0.03111 -0.09333,0 -0.186667,0.09333 l 0.155556,0.342222 -0.248889,0.06222 q -0.84,0.155556 -1.4,0.311111 -0.528888,0.124445 -0.964444,0.373334 -0.435555,0.248888 -0.87111,0.622222 -0.404445,0.342222 -1.057778,0.902221 -0.311111,0.28 -0.684444,0.435556 -0.342222,0.124444 -0.715555,0.248889 -0.342222,0.09333 -0.684444,0.217777 -0.311111,0.124445 -0.528889,0.404445 -0.217778,0.777777 -0.653333,1.524443 -0.404444,0.715556 -0.404444,1.524444 0,0.466667 0.373333,0.84 0.404444,0.342222 0.995555,0.591111 0.622222,0.248889 1.337777,0.435555 0.746667,0.186667 1.462222,0.28 0.715555,0.09333 1.306666,0.155556 0.622222,0.03111 0.964444,0.03111 1.182222,0 2.333332,-0.217778 1.151111,-0.248889 2.333333,-0.248889 1.213333,0 2.426666,0.124445 1.213332,0.09333 2.426665,0.09333 0.311111,0 0.933333,-0.03111 0.622222,-0.03111 1.213333,-0.155556 0.622222,-0.155555 1.057777,-0.404444 0.466667,-0.28 0.466667,-0.715555 z"
         style="font-style:normal;font-variant:normal;font-weight:normal;font-stretch:normal;font-family:'Special Elite';-inkscape-font-specification:'Special Elite';fill:url(#linearGradient925);fill-opacity:1;stroke:#ffffff;stroke-width:15;stroke-linejoin:round;stroke-miterlimit:4;stroke-dasharray:none;stroke-opacity:1;paint-order:stroke fill markers"
         id="path895"
         inkscape:connector-curvature="0" />
      <path
         d="m 112.56048,88.719352 q 0,0.311111 -0.2489,0.435555 -0.21778,0.124445 -0.43556,0.248889 -0.34222,0.186667 -0.56,0.435556 -0.21778,0.248888 -0.40445,0.559999 -0.18667,0.28 -0.34223,0.622222 -0.15555,0.311111 -0.34222,0.591111 -0.43556,0.653333 -1.21335,0.902222 -0.74667,0.248889 -1.49335,0.466667 -0.74667,0.217777 -1.3689,0.622222 -0.59112,0.373333 -0.74667,1.306666 h -0.15556 q -0.71557,0 -1.33779,0.248889 -0.59112,0.248888 -1.21335,0.528888 -0.59112,0.311111 -1.21335,0.56 -0.62222,0.248889 -1.30667,0.248889 -0.373336,0 -0.715562,-0.124445 -0.311108,-0.124444 -0.65333,-0.279999 -0.311111,-0.155556 -0.653333,-0.28 -0.311111,-0.124445 -0.684444,-0.124445 -0.497778,0 -0.964444,0.06222 -0.466667,0.06222 -0.933333,0.06222 -0.342222,0 -0.808889,-0.09333 -0.466666,-0.06222 -0.871111,-0.248888 -0.404444,-0.186667 -0.684444,-0.466667 -0.28,-0.311111 -0.28,-0.746666 0,-0.155556 0.03111,-0.248889 -0.155555,0.155555 -0.342222,0.217778 -0.186666,0.03111 -0.373333,0.03111 -0.933333,0 -1.742221,-0.404445 -0.777778,-0.435555 -1.493333,-1.026666 -0.684444,-0.622222 -1.306666,-1.306666 -0.591111,-0.715555 -1.182222,-1.306666 -0.715555,-0.715555 -1.12,-1.648888 -0.373333,-0.933333 -0.902222,-1.804444 -1.119999,-1.804444 -1.368888,-3.639999 -0.248889,-1.866666 -0.248889,-3.888887 0,-0.373333 0.03111,-0.84 0.06222,-0.497777 0.217778,-0.715555 0.124445,-0.155555 0.311111,-0.217778 0.186667,-0.09333 0.342222,-0.155555 0.186667,-0.09333 0.311111,-0.186667 0.124445,-0.09333 0.124445,-0.28 0,-0.435555 -0.217778,-0.777777 -0.217778,-0.373333 -0.217778,-0.808889 0,-0.311111 0.124445,-0.528888 0.155555,-0.217778 0.311111,-0.466667 0.248888,-0.404444 0.435555,-1.337777 0.217778,-0.964444 0.435555,-1.897777 0.248889,-0.964444 0.591111,-1.679999 0.373333,-0.746667 0.964444,-0.746667 0.435556,0 0.808889,0.124445 0.373333,0.124444 0.808888,0.124444 0.373334,0 0.715556,-0.09333 l 0.03111,-0.248889 q 0,-0.373333 -0.248889,-0.466667 -0.217778,-0.09333 -0.497778,-0.124444 -0.248888,-0.03111 -0.497777,-0.06222 -0.217778,-0.06222 -0.217778,-0.342222 0,-0.186667 0.155556,-0.311111 0.186666,-0.155556 0.404444,-0.248889 0.248889,-0.124444 0.497778,-0.217778 0.248888,-0.09333 0.373333,-0.186666 0.311111,-0.248889 0.435555,-0.466667 0.124444,-0.248889 0.217778,-0.466666 0.124444,-0.217778 0.342222,-0.373334 0.217778,-0.155555 0.715555,-0.279999 0.435556,-0.09333 0.871111,-0.09333 0.435555,-0.03111 0.871111,-0.03111 0.435555,-0.03111 0.87111,-0.06222 0.435556,-0.03111 0.871111,-0.155555 L 93.86257,64.29715 q 0.155556,-0.28 0.435556,-0.435556 0.279999,-0.186666 0.622222,-0.28 0.373333,-0.09333 0.715555,-0.09333 0.373333,-0.03111 0.653333,-0.03111 1.088888,0 2.115555,0.28 1.026667,0.28 2.053339,0.28 0.43556,0 0.84001,-0.09333 0.43555,-0.124444 0.87111,-0.124444 0.65335,0 1.21335,0.342222 0.59112,0.311111 1.12001,0.591111 l 0.12445,0.03111 q 0.28,0 0.46667,-0.217778 0.18667,-0.217777 0.37334,-0.217777 0.15555,0 0.24889,0.155555 0.0933,0.124445 0.18667,0.248889 0.24889,0.28 0.65334,0.373333 0.43556,0.06222 0.59111,0.311111 0.21778,0.373333 0.49779,0.528889 0.28,0.124444 0.56,0.186666 0.28001,0.06222 0.59112,0.124445 0.31112,0.06222 0.59112,0.28 v 0.87111 q 0.62222,0.808889 1.15112,1.244444 0.56001,0.404445 0.96445,0.871111 0.43556,0.435556 0.65334,1.12 0.24889,0.653333 0.24889,1.928888 0,1.368888 -0.24889,2.395554 -0.21778,1.026667 -0.80889,1.742222 -0.56001,0.684444 -1.52447,1.057777 -0.96445,0.342222 -2.39557,0.311111 l -2.02225,-0.03111 q -0.24889,-0.404444 -0.71556,-1.119999 -0.46667,-0.746667 -0.93334,-1.524444 -0.46667,-0.808889 -0.84001,-1.493333 -0.34223,-0.715555 -0.34223,-1.088888 0,-0.466667 0.0622,-0.933333 0.0933,-0.466667 0.0933,-0.933333 -0.21778,-0.591111 -0.59112,-0.964444 -0.34222,-0.373334 -0.80889,-0.56 -0.46667,-0.217778 -1.02668,-0.28 -0.528886,-0.06222 -1.08889,-0.06222 -0.808888,0 -1.617777,0.124444 -0.777777,0.124445 -1.524444,0.404444 0,-0.279999 -0.155555,-0.497777 -0.124445,-0.248889 -0.466667,-0.248889 -0.435555,0 -1.057777,0.342222 -0.622222,0.311111 -1.275555,0.777778 -0.622222,0.466666 -1.151111,0.995555 -0.528889,0.497777 -0.777777,0.871111 -0.217778,0.311111 -0.591111,0.964444 -0.373333,0.653333 -0.808889,1.306666 -0.404444,0.653333 -0.871111,1.182222 -0.435555,0.497777 -0.808888,0.528888 0.09333,0.435556 0.248889,1.182222 0.155555,0.715555 0.28,1.524444 0.124444,0.808888 0.217777,1.555555 0.09333,0.715555 0.09333,1.119999 0,0.715556 0.248888,1.337778 0.248889,0.622222 0.248889,1.337777 0,0.528888 -0.155555,1.057777 -0.124445,0.528889 -0.124445,1.057778 0,0.466666 0.124445,0.622221 0.155555,0.155556 0.591111,0.28 0.497777,0.155556 0.684444,0.528889 0.217777,0.373333 0.342222,0.777778 0.155555,0.373333 0.342222,0.653333 0.217778,0.279999 0.746666,0.279999 h 0.155556 l 0.373333,-0.03111 q 0.373333,0.497778 0.435555,1.12 0.09333,0.622222 0.466667,1.12 0.217778,-0.03111 0.28,-0.186667 0.06222,-0.155556 0.124444,-0.311111 0.06222,-0.155556 0.186667,-0.28 0.155555,-0.124444 0.528888,-0.124444 0.342222,0 0.56,0.186666 0.217778,0.186667 0.404444,0.435556 0.186667,0.217777 0.373334,0.404444 0.217777,0.186666 0.528888,0.186666 0.528889,0 1.151111,-0.186666 0.653333,-0.217778 1.306666,-0.466667 0.684444,-0.279999 1.337776,-0.559999 0.65334,-0.28 1.18224,-0.435556 1.27556,-0.373333 2.39557,-1.088888 1.12001,-0.715555 1.80446,-1.897777 0.34223,-0.622222 0.8089,-1.151111 0.49778,-0.528889 0.77778,-1.182222 0.31112,0 0.62223,-0.03111 0.31112,-0.03111 0.65335,-0.03111 0.0933,0 0.28,0 0.21778,0 0.43556,0.03111 0.21778,0.03111 0.37334,0.09333 0.18666,0.06222 0.18666,0.155555 0,0.28 -0.21778,0.466667 -0.18667,0.155555 -0.43555,0.311111 -0.21779,0.124444 -0.40446,0.311111 -0.18666,0.155555 -0.18666,0.466666 l 0.34222,-0.03111 q 0.37334,0 0.99557,0.186666 0.62223,0.186667 1.21334,0.528889 0.62223,0.311111 1.05779,0.715555 0.46667,0.404445 0.46667,0.84 z m -2.24003,1.742222 q 0,-0.186667 -0.15556,-0.311111 -0.12444,-0.155556 -0.31111,-0.155556 -0.21778,0 -0.37333,0.28 -0.15556,0.28 -0.15556,0.435555 0,0.186667 0.21778,0.186667 0.21778,-0.03111 0.28,-0.03111 0.15556,0 0.31111,-0.06222 0.18667,-0.09333 0.18667,-0.342222 z"
         style="font-style:normal;font-variant:normal;font-weight:normal;font-stretch:normal;font-family:'Special Elite';-inkscape-font-specification:'Special Elite';fill:url(#linearGradient923);fill-opacity:1;stroke:#ffffff;stroke-width:15;stroke-linejoin:round;stroke-miterlimit:4;stroke-dasharray:none;stroke-opacity:1;paint-order:stroke fill markers"
         id="path897"
         inkscape:connector-curvature="0" />
      <path
         d="m 115.81824,145.66489 q 0,1.08889 -0.74667,1.71111 -0.71555,0.65333 -1.74222,0.96444 -1.02667,0.34222 -2.14667,0.43556 -1.08889,0.0933 -1.86666,0.0933 -1.02667,0 -1.71111,-0.18667 -0.65334,-0.18667 -1.15111,-0.40444 -0.49778,-0.18667 -0.87111,-0.37334 -0.37334,-0.18666 -0.77778,-0.18666 -0.52889,0 -1.05778,0.18666 -0.49778,0.18667 -1.02667,0.18667 -0.37333,0 -0.62222,-0.12445 -0.21778,-0.12444 -0.37333,-0.31111 -0.15556,-0.15555 -0.31111,-0.28 -0.12445,-0.12444 -0.31111,-0.12444 -0.21778,0 -0.34222,0.15555 -0.12445,0.18667 -0.28,0.40445 -0.15556,0.21778 -0.46667,0.37333 -0.280004,0.18667 -0.840004,0.18667 -0.65333,0 -1.27556,-0.15556 -0.62222,-0.12444 -1.27555,-0.12444 -0.65333,0 -1.30667,0.21778 -0.62222,0.24889 -1.18222,0.24889 -0.24889,0 -0.37333,-0.18667 -0.12445,-0.15556 -0.28,-0.15556 -0.52889,0 -1.12,0.24889 -0.56,0.24889 -1.15111,0.24889 -0.31111,0 -0.62222,-0.0933 -0.28,-0.0622 -0.59111,-0.0622 -0.52889,0 -1.05778,0.24889 -0.52889,0.24889 -1.30667,0.24889 -0.28,0 -1.24444,-0.0933 -0.93334,-0.0622 -1.92889,-0.21778 -0.995556,-0.15556 -1.804444,-0.40444 -0.777778,-0.21778 -0.777778,-0.49778 0,-0.80889 0.28,-1.61778 0.311111,-0.80889 0.311111,-1.55555 v -0.0622 q -0.404444,0 -0.466666,-0.43556 0.06222,-0.12444 0.186666,-0.18667 0.155556,-0.0933 0.311111,-0.12444 0.155556,-0.0622 0.28,-0.15556 0.124445,-0.0933 0.124445,-0.28 v -0.12445 q 1.244444,0.12445 2.426665,0.15556 1.21333,0.0311 2.52,0.0311 1.21333,0 2.67555,-0.0622 1.49334,-0.0933 2.73778,-0.46667 1.27556,-0.37333 2.11556,-1.12 0.87111,-0.77777 0.87111,-2.14666 v -0.21778 -0.49778 q -0.15556,-3.42222 -0.34223,-6.72 -0.15555,-3.32888 -0.15555,-6.7511 0,-0.90223 -0.15556,-1.74223 -0.12444,-0.87111 -0.12444,-1.74222 0,-1.08889 0.37333,-2.17777 0.40445,-1.08889 1.24445,-1.83556 -0.0311,-0.18667 -0.15556,-0.24889 -0.12444,-0.0933 -0.31111,-0.12444 -0.18667,-0.0311 -0.37333,-0.0622 -0.15556,-0.0311 -0.28,-0.0933 -0.18667,-0.0933 -0.24889,-0.43556 -0.0622,-0.34222 -0.12445,-0.74666 -0.0311,-0.40445 -0.0933,-0.77778 -0.0311,-0.40445 -0.18667,-0.62222 0.0933,-0.90223 0.31111,-1.77334 0.21778,-0.87111 0.21778,-1.77333 0,-0.65333 -0.18666,-1.02667 -0.15556,-0.37333 -0.37334,-0.62222 -0.21778,-0.24889 -0.40444,-0.43555 -0.15556,-0.21778 -0.15556,-0.52889 0,-0.24889 0.15556,-0.46667 l -0.24889,-0.0311 q -0.31111,0 -0.46667,0.15556 -0.15555,0.15555 -0.31111,0.34222 -0.12444,0.18667 -0.28,0.34222 -0.15555,0.15556 -0.43555,0.15556 -0.21778,0 -0.49778,-0.0933 -0.52889,0.15555 -0.99556,0.15555 -1.08889,0 -2.17777,-0.28 -1.05778,-0.31111 -2.14667,-0.31111 -0.59111,0 -1.15111,0.0622 -0.56,0.0311 -1.12,0.0311 -0.808888,0 -1.617777,-0.18666 -0.808888,-0.18667 -1.43111,-0.80889 v -0.37333 q 0,-1.64889 1.088888,-2.48889 1.12,-0.84 2.706669,-0.84 1.08889,0 2.14666,0.28 1.05778,0.28 2.14667,0.28 0.59111,0 1.24444,-0.12445 0.65334,-0.12444 1.33778,-0.28 0.68444,-0.15555 1.36889,-0.28 0.71555,-0.12444 1.4,-0.12444 1.05777,0 1.99111,0.46667 0.93333,0.43555 1.86666,0.84 l -0.0311,0.24888 q 0,0.28 0.12445,0.52889 0.15555,0.21778 0.34222,0.46667 0.18667,0.21778 0.311114,0.46667 0.15556,0.21777 0.15556,0.49777 0,0.28 -0.0933,0.56 -0.0622,0.24889 -0.0622,0.52889 0,0.68445 0.24889,1.30667 0.28,0.62222 0.28,1.33778 0,0.74666 -0.18667,1.46222 -0.15555,0.71555 -0.15555,1.46222 0,0.90222 0.21777,1.80444 0.21778,0.90222 0.21778,1.80445 0,0.74666 -0.24889,1.46222 -0.21777,0.71555 -0.21777,1.43111 0,0.52889 0.12444,1.05778 0.15556,0.49777 0.34222,0.99555 0.18667,0.49778 0.31111,1.02667 0.15556,0.49777 0.15556,1.05777 v 0.62223 q 0,0.49777 -0.0933,0.96444 -0.0622,0.43556 -0.40445,0.84 0.15556,0.59111 0.31111,1.27555 0.18667,0.68445 0.18667,1.30667 0,0.31111 -0.0622,0.68445 -0.0311,0.34222 -0.15556,0.71555 -0.0933,0.34222 -0.28,0.65333 -0.18667,0.28 -0.43555,0.46667 0.40444,1.18222 0.52888,2.39555 0.12445,1.21334 0.18667,2.42667 0.0311,0.37333 0.12445,0.96444 0.0933,0.59112 0.18666,1.18223 0.0933,0.56 0.15556,1.05777 0.0933,0.46667 0.0933,0.65334 0,0.52889 -0.18667,1.02666 -0.18666,0.49778 -0.18666,1.02667 0,0.40444 0.18666,0.87111 0.18667,0.43556 0.68445,0.43556 0.37333,0 0.62222,-0.15556 0.28,-0.18667 0.59111,-0.37333 0.31111,-0.21778 0.71556,-0.37334 0.43555,-0.18666 1.15111,-0.18666 0.80889,0 1.52444,0.21777 0.71556,0.21778 1.52444,0.21778 0.59112,0 1.18223,-0.0933 0.62222,-0.12444 1.18222,-0.24889 0.59111,-0.15555 1.18222,-0.28 0.59111,-0.12444 1.21333,-0.12444 1.24445,0 2.08445,0.71556 0.87111,0.71555 0.87111,2.11555 z M 97.960466,106.93157 q -0.12445,-0.12445 -0.31111,-0.24889 -0.15556,-0.12444 -0.37334,-0.12444 -0.15555,0 -0.28,0.15555 -0.0933,0.12445 -0.0933,0.28 l 0.15555,0.37333 q 0.12445,0.0622 0.18667,0.0622 0.24889,0 0.40445,-0.15555 0.18666,-0.18667 0.31111,-0.34222 z m 1.86666,8.64888 q 0,-0.24888 -0.15555,-0.49777 -0.12445,-0.28 -0.43556,-0.28 -0.0933,0 -0.21778,0.0311 -0.0933,0.0311 -0.15555,0.0622 v 1.33777 q 0.24889,0.12445 0.37333,0.12445 0.31111,0 0.43556,-0.24889 0.15555,-0.28 0.15555,-0.52889 z"
         style="font-style:normal;font-variant:normal;font-weight:normal;font-stretch:normal;font-family:'Special Elite';-inkscape-font-specification:'Special Elite';fill:url(#linearGradient929);fill-opacity:1;stroke:#ffffff;stroke-width:15;stroke-linejoin:round;stroke-miterlimit:4;stroke-dasharray:none;stroke-opacity:1;paint-order:stroke fill markers"
         id="path899"
         inkscape:connector-curvature="0" />
      <path
         d="m 167.62659,143.23826 q 0,0.52889 -0.18667,0.99556 -0.18666,0.46667 -0.34222,0.96444 -0.12444,0.43556 -0.18666,0.71556 -0.0311,0.28 -0.12445,0.49778 -0.0933,0.18666 -0.31111,0.37333 -0.18667,0.15555 -0.62222,0.37333 -0.93333,0.49778 -1.99111,1.02667 -1.02667,0.49778 -2.08445,0.49778 -0.90222,0 -1.71111,-0.40445 -0.77777,-0.43555 -1.46222,-0.93333 -0.65333,-0.52889 -1.21333,-0.96445 -0.52889,-0.43555 -0.90222,-0.43555 -0.40445,0 -0.71556,0.21778 -0.28,0.21777 -0.59111,0.46666 -0.28,0.24889 -0.65333,0.46667 -0.34222,0.21778 -0.87111,0.21778 -0.43556,0 -0.90222,0.15555 -0.46667,0.15556 -0.93334,0.37334 -0.46666,0.18666 -0.96444,0.40444 -0.46667,0.18667 -0.87111,0.31111 -1.4,0.37333 -2.83111,0.43556 -1.4,0.0622 -2.83111,0.0622 -0.37334,0 -1.15111,-0.0311 -0.77778,0 -1.58667,-0.15556 -0.77778,-0.12444 -1.4,-0.43555 -0.59111,-0.31112 -0.59111,-0.87112 0,-0.12444 0.0311,-0.21777 -0.21778,0.24889 -0.49778,0.40444 -0.28,0.15556 -0.62222,0.15556 -0.49778,0 -1.21333,-0.68445 -0.71556,-0.68444 -1.36889,-1.58666 -0.65333,-0.90223 -1.12,-1.77334 -0.46666,-0.90222 -0.46666,-1.33777 0,-0.34223 0.18666,-0.62223 0.21778,-0.28 0.21778,-0.62222 0,-0.43555 -0.12444,-0.80889 -0.0933,-0.40444 -0.0933,-0.84 0,-0.56 0.21778,-1.18222 0.21778,-0.65333 0.52889,-1.27555 0.31111,-0.65334 0.65333,-1.24445 0.34222,-0.62222 0.62222,-1.15111 0.31111,-0.62222 0.87111,-0.99555 0.56,-0.37334 1.18223,-0.65334 0.62222,-0.28 1.24444,-0.56 0.62222,-0.28 1.08889,-0.74666 0.46666,0.52889 1.21333,0.52889 0.77778,0 1.52444,-0.21778 0.74667,-0.24889 1.52445,-0.24889 0.62222,0 1.18222,0.12444 0.59111,0.12445 1.21333,0.12445 0.68445,0 0.99556,-0.15556 0.34222,-0.18666 0.84,-0.62222 0.49778,-0.43555 1.24444,-0.65333 0.77778,-0.24889 1.58667,-0.37333 0.84,-0.15556 1.64889,-0.31112 0.84,-0.15555 1.49333,-0.43555 0.65333,-0.31111 1.05778,-0.80889 0.40444,-0.52889 0.40444,-1.43111 0,-0.99555 -0.59111,-2.08444 -0.56,-1.12 -1.46222,-2.02222 -0.90222,-0.93334 -1.99111,-1.52445 -1.08889,-0.59111 -2.08445,-0.59111 -0.12444,0 -0.24888,0.0311 -0.12445,0.0311 -0.21778,0.0311 -0.74667,0.12444 -1.68,0.18667 -0.93333,0.0311 -1.74222,0.28 -0.80889,0.21777 -1.36889,0.77777 -0.56,0.52889 -0.56,1.58667 0,0.62222 0.0933,1.24444 0.12445,0.59112 0.12445,1.21334 0,0.93333 -0.46667,1.55555 -0.43556,0.62222 -1.15111,0.99556 -0.68444,0.37333 -1.52444,0.52889 -0.84,0.12444 -1.61778,0.12444 -0.93333,0 -1.61778,-0.24889 -0.68444,-0.24889 -1.12,-1.15111 -0.34222,-0.65333 -0.74666,-1.4 -0.37334,-0.77778 -0.37334,-1.55555 0,-0.84 0.28,-1.55556 0.31111,-0.74666 0.68445,-1.43111 0.37333,-0.71555 0.71555,-1.4 0.37333,-0.71555 0.52889,-1.52444 0.21778,-0.12445 0.59111,-0.24889 0.40445,-0.12445 0.84,-0.24889 0.46667,-0.12444 0.87111,-0.21778 0.43556,-0.12444 0.71556,-0.21777 0.74666,-0.21778 1.43111,-0.49778 0.71555,-0.31111 1.43111,-0.56 0.74666,-0.24889 1.46222,-0.43556 0.74667,-0.18666 1.52444,-0.21778 l 0.96445,-0.0311 q 1.33777,0 2.73777,0.24889 1.4,0.21778 2.73778,0.71556 1.33778,0.49778 2.52,1.24444 1.21333,0.71556 2.14667,1.71111 0.68444,0.74667 1.12,1.77334 0.46666,0.99555 0.71555,2.11555 0.28,1.12 0.37333,2.27111 0.12445,1.12 0.12445,2.08444 0,1.30667 -0.0933,2.58223 -0.0622,1.24444 -0.0622,2.55111 0,1.24444 0.12445,2.48888 0.15555,1.21334 0.34222,2.45778 0.18667,1.21333 0.31111,2.45778 0.15556,1.21333 0.15556,2.42666 0.0622,0.74667 0.18666,0.93334 0.15556,0.15555 0.31111,0.15555 0.68445,0 1.08889,-0.40444 0.43556,-0.43556 0.77778,-0.93334 0.34222,-0.52888 0.74667,-0.96444 0.40444,-0.43556 1.02666,-0.43556 0.28,0 0.56,0.0311 0.31111,0.0311 0.56,0.15556 0.24889,0.0933 0.40445,0.31111 0.15555,0.18667 0.15555,0.52889 z m -10.23555,-7.74666 q 0,-0.18667 -0.0311,-0.65333 0,-0.46667 -0.0622,-0.93334 -0.0622,-0.49777 -0.21778,-0.87111 -0.12445,-0.37333 -0.40445,-0.37333 -0.0622,0 -0.15555,0.0622 -0.0933,0.0311 -0.15556,0.0311 -1.18222,0.65333 -2.02222,1.08889 -0.84,0.40444 -1.68,0.68444 -0.80889,0.24889 -1.74222,0.34223 -0.93333,0.0933 -2.33333,0.0933 -0.18667,0 -1.02667,0.15555 -0.84,0.15556 -1.83555,0.37333 -0.99556,0.18667 -1.86667,0.40445 -0.87111,0.18666 -1.08889,0.24889 -0.40444,0.15555 -0.59111,0.31111 -0.15555,0.15555 -0.24889,0.34222 -0.0933,0.18667 -0.18666,0.40444 -0.0933,0.18667 -0.34223,0.40445 -0.31111,0.24889 -0.68444,0.40444 -0.34222,0.15556 -0.65333,0.46667 -0.46667,0.46667 -0.87111,1.24444 -0.40445,0.74667 -0.40445,1.43111 0,0.84 0.43556,1.49334 0.43555,0.65333 1.15111,1.12 0.71555,0.46666 1.61778,0.80888 0.90222,0.34223 1.80444,0.52889 0.93333,0.18667 1.77333,0.28 0.87111,0.0933 1.49333,0.0933 0.74667,0 1.77334,-0.0933 1.02666,-0.12444 2.05333,-0.34222 1.02667,-0.24889 1.92889,-0.65333 0.90222,-0.40445 1.43111,-1.02667 0.21778,-0.24889 0.31111,-0.43555 0.0933,-0.21778 0.18667,-0.40445 0.12444,-0.21778 0.24888,-0.43555 0.15556,-0.21778 0.46667,-0.46667 0.71556,-0.59111 1.08889,-1.30667 0.40444,-0.71555 0.59111,-1.49333 0.18667,-0.77778 0.21778,-1.61778 0.0311,-0.84 0.0311,-1.71111 z"
         style="font-style:normal;font-variant:normal;font-weight:normal;font-stretch:normal;font-family:'Special Elite';-inkscape-font-specification:'Special Elite';fill:url(#linearGradient927);fill-opacity:1;stroke:#ffffff;stroke-width:15;stroke-linejoin:round;stroke-miterlimit:4;stroke-dasharray:none;stroke-opacity:1;paint-order:stroke fill markers"
         id="path901"
         inkscape:connector-curvature="0" />
      <path
         d="m 125.28583,185.82269 q 0,0.40444 -0.15555,0.80889 -0.12445,0.37333 -0.31111,0.77777 -0.18667,0.37334 -0.37334,0.74667 -0.15555,0.37333 -0.21777,0.77778 -0.15556,0.84 -0.65334,1.52444 -0.46666,0.65333 -1.08889,1.24444 -0.62222,0.59112 -1.30666,1.15112 -0.68445,0.52888 -1.21333,1.08888 -0.46667,0.46667 -0.99556,0.46667 -0.31111,0 -0.59111,-0.0622 -0.28,-0.0622 -0.59111,-0.0622 -0.43556,0 -0.71556,0.15556 -0.24889,0.15555 -0.49777,0.34222 -0.21778,0.15555 -0.56,0.31111 -0.31112,0.15555 -0.87111,0.15555 -0.40445,0 -0.77778,0.21778 -0.37334,0.21778 -0.74667,0.21778 -0.52889,0 -1.24444,-0.31111 -0.68445,-0.31111 -1.52445,-0.31111 -0.52889,0 -1.05777,0.0622 -0.52889,0.0311 -1.05778,0.0311 -0.46667,0 -0.93334,-0.12445 -0.43556,-0.15555 -0.87112,-0.31111 -0.40444,-0.18666 -0.83999,-0.31111 -0.43556,-0.15555 -0.90223,-0.15555 -0.93333,0 -1.58666,0.46666 -0.65334,0.46667 -1.18222,1.02667 -0.49778,0.59111 -1.02667,1.05778 -0.49778,0.46666 -1.15111,0.46666 -0.591105,0 -0.808885,-0.21777 -0.18667,-0.18667 -0.24889,-0.46667 -0.0311,-0.28 -0.0622,-0.62222 -0.0311,-0.31111 -0.28,-0.56 -0.46667,-0.49778 -0.62222,-0.90222 -0.15556,-0.43556 -0.15556,-1.12 0,-1.49334 0.24889,-2.89334 0.28,-1.43111 0.28,-2.92444 0,-0.52889 -0.12444,-1.02667 -0.12445,-0.49777 -0.31111,-0.90222 -0.15556,-0.40444 -0.28,-0.68444 -0.12445,-0.28 -0.12445,-0.40445 0,-0.28 0.15556,-0.59111 0.15555,-0.31111 0.34222,-0.56 0.21778,-0.28 0.43555,-0.43555 0.24889,-0.18667 0.40445,-0.18667 0.31111,0 0.52889,0.15556 0.24889,0.15555 0.466655,0.34222 0.24889,0.15555 0.46667,0.31111 0.24889,0.15556 0.59111,0.15556 0.0622,0 0.0933,0 0.0311,-0.0311 0.0933,-0.0311 0.43555,0.71555 0.68444,1.55555 0.24889,0.80889 0.49778,1.61778 0.28,0.77777 0.65333,1.52444 0.40445,0.71556 1.12,1.27556 0.18667,0.15555 0.43556,0.34222 0.24889,0.18666 0.49777,0.37333 0.28,0.18667 0.52889,0.31111 0.28,0.12445 0.49778,0.12445 0.34222,0 0.65333,-0.0622 0.34223,-0.0622 0.68445,-0.0622 0.46667,0 0.46667,0.31111 0,0.0622 -0.0622,0.24889 h 0.37334 0.21777 q 1.18222,0 2.36445,-0.28 1.18222,-0.28 2.39555,-0.28 0.56,0 1.12,0.12444 0.59111,0.0933 1.05778,0.43556 0.59111,-0.28 0.99555,-0.71556 0.40445,-0.43555 0.80889,-0.84 0.40445,-0.43555 0.90222,-0.74667 0.49778,-0.34222 1.27556,-0.37333 0.15555,-0.18667 0.15555,-0.43555 0.0311,-0.24889 0.0311,-0.46667 0,-0.24889 0.0311,-0.46667 0.0622,-0.21777 0.24889,-0.40444 0.31111,-0.28 0.46666,-0.56 0.18667,-0.31111 0.18667,-0.74667 0,-0.84 -0.46667,-1.55555 -0.46666,-0.74667 -1.21333,-1.33778 -0.71556,-0.62222 -1.68,-1.08889 -0.93333,-0.49778 -1.92889,-0.84 -0.96444,-0.34222 -1.86666,-0.49778 -0.90223,-0.18666 -1.58667,-0.18666 -0.77778,0 -1.55556,0.15555 -0.74666,0.12445 -1.46222,0.46667 0,-0.68444 -0.31111,-0.90222 -0.31111,-0.21778 -0.74667,-0.31111 -0.43556,-0.0933 -0.90223,-0.24889 -0.43555,-0.18667 -0.68444,-0.77778 -0.52889,0.68445 -1.33778,0.99556 -0.77778,0.31111 -1.58666,0.31111 -0.80889,0 -1.49334,-0.31111 -0.68444,-0.31111 -1.24444,-0.84 -0.52889,-0.52889 -0.871105,-1.21334 -0.31111,-0.68444 -0.34222,-1.46222 -0.0311,-0.52889 -0.21778,-0.93333 -0.18667,-0.40445 -0.40445,-0.77778 -0.21777,-0.37333 -0.40444,-0.77778 -0.15555,-0.40444 -0.15555,-0.96444 0,-1.4 0.12444,-2.17778 0.15555,-0.80889 0.37333,-1.21333 0.21778,-0.43556 0.46667,-0.59111 0.28,-0.18667 0.56,-0.34222 0.28,-0.18667 0.528885,-0.49778 0.24889,-0.31111 0.40444,-0.99556 0.0933,-0.46666 0.28,-0.62222 0.18667,-0.15555 0.65333,-0.21778 0.40445,-0.0622 0.52889,-0.18666 0.12445,-0.12445 0.15556,-0.28 0.0622,-0.15556 0.12444,-0.31111 0.0622,-0.18667 0.31111,-0.34222 0.65334,-0.43556 1.27556,-0.52889 0.65333,-0.12445 1.33778,-0.12445 0.40444,0 0.77777,0.0311 0.37334,0 0.80889,0 1.30668,0 2.55112,-0.12444 1.24445,-0.12445 2.55111,-0.12445 0.99556,0 1.80445,0.21778 0.84,0.18667 1.46222,0.43556 0.62222,0.24889 1.05778,0.46666 0.46666,0.18667 0.74666,0.18667 0.52889,0 0.99556,-0.18667 0.49777,-0.21777 1.02666,-0.24889 0.24889,0.21778 0.56,0.40445 0.34223,0.15555 0.68445,0.15555 0.24889,0 0.37333,-0.15555 0.12445,-0.15556 0.15556,-0.40445 0.43555,0.12445 0.84,0.43556 0.40444,0.31111 0.71555,0.74667 0.34222,0.40444 0.52889,0.90222 0.18667,0.46666 0.18667,0.90222 0,1.15111 -0.18667,2.30222 -0.15556,1.12 -0.15556,2.27111 0,1.18222 0.31112,2.20889 -0.43556,0.34222 -0.96445,0.62222 -0.49778,0.24889 -0.84,0.71556 l -0.0311,-0.0311 q -0.21778,-0.18667 -0.56,-0.46667 -0.31111,-0.31111 -0.68444,-0.59111 -0.34223,-0.28 -0.68445,-0.46667 -0.34222,-0.21777 -0.62222,-0.21777 h -0.0622 q -0.15556,-0.0933 -0.28,-0.21778 -0.0933,-0.12445 -0.0933,-0.31111 0,-0.31111 0.18667,-0.56 0.18667,-0.24889 0.18667,-0.56 0,-0.0933 -0.28,-0.43556 -0.28,-0.34222 -0.65333,-0.68444 -0.34223,-0.37334 -0.68445,-0.65334 -0.34222,-0.31111 -0.49778,-0.34222 -0.31111,-0.0622 -0.65333,-0.21778 -0.34222,-0.15555 -0.68444,-0.31111 -0.34223,-0.15555 -0.65334,-0.28 -0.28,-0.12444 -0.46666,-0.12444 -0.40445,0 -0.80889,0.12444 -0.40445,0.0933 -0.84,0.12445 h 0.0311 l -1.4,-0.15556 q -1.02667,-0.12444 -2.02222,-0.49778 -0.99556,-0.37333 -2.05334,-0.37333 -0.93334,0 -1.36889,0.43556 -0.43556,0.43555 -0.71556,0.99555 -0.28,0.52889 -0.56,0.96445 -0.28,0.43555 -0.93333,0.43555 -0.18667,0 -0.28,-0.0311 0.31111,0.99556 0.56,1.68 0.28,0.68445 0.65333,1.24444 0.37334,0.52889 0.93334,1.02667 0.56,0.46667 1.43111,1.02667 0.0933,0.0622 0.24888,0.21778 0.18667,0.15555 0.37334,0.34222 0.18666,0.15555 0.34222,0.28 0.18667,0.12444 0.28,0.12444 0.5289,0 0.99557,-0.24889 0.49777,-0.24889 1.02666,-0.24889 0.37333,0 0.68445,0.18667 0.34222,0.15556 0.71555,0.15556 0.37333,0 0.71556,-0.12445 0.34222,-0.15555 0.74666,-0.15555 0.15556,0 0.31111,0.0311 0.18667,0.0311 0.34223,0.0622 0.93333,0.24889 1.86666,0.24889 0.93333,-0.0311 1.89778,0 0.68444,0 1.36889,0.24888 0.71555,0.24889 1.36889,0.65334 0.65333,0.37333 1.21333,0.87111 0.56,0.49778 0.96444,1.02666 0.31111,0.43556 0.68445,0.77778 0.37333,0.34222 0.71555,0.71556 0.37333,0.34222 0.65333,0.74666 0.28,0.40445 0.40445,0.93334 0.15555,0.62222 0.40444,1.36888 0.28,0.74667 0.28,1.33778 z"
         style="font-style:normal;font-variant:normal;font-weight:normal;font-stretch:normal;font-family:'Special Elite';-inkscape-font-specification:'Special Elite';fill:url(#linearGradient921);fill-opacity:1;stroke:#ffffff;stroke-width:15;stroke-linejoin:round;stroke-miterlimit:4;stroke-dasharray:none;stroke-opacity:1;paint-order:stroke fill markers"
         id="path903"
         inkscape:connector-curvature="0" />
      <path
         d="m 172.37305,185.82268 q 0,0.40445 -0.15556,0.80889 -0.12444,0.37333 -0.31111,0.77778 -0.18667,0.37333 -0.37333,0.74666 -0.15556,0.37334 -0.21778,0.77778 -0.15556,0.84 -0.65333,1.52444 -0.46667,0.65334 -1.08889,1.24445 -0.62222,0.59111 -1.30667,1.15111 -0.68444,0.52889 -1.21333,1.08889 -0.46667,0.46666 -0.99556,0.46666 -0.31111,0 -0.59111,-0.0622 -0.28,-0.0622 -0.59111,-0.0622 -0.43555,0 -0.71555,0.15556 -0.24889,0.15556 -0.49778,0.34222 -0.21778,0.15556 -0.56,0.31111 -0.31111,0.15556 -0.87111,0.15556 -0.40445,0 -0.77778,0.21778 -0.37333,0.21777 -0.74667,0.21777 -0.52888,0 -1.24444,-0.31111 -0.68444,-0.31111 -1.52444,-0.31111 -0.52889,0 -1.05778,0.0622 -0.52889,0.0311 -1.05778,0.0311 -0.46666,0 -0.93333,-0.12444 -0.43556,-0.15556 -0.87111,-0.31111 -0.40445,-0.18667 -0.84,-0.31111 -0.43556,-0.15556 -0.90222,-0.15556 -0.93334,0 -1.58667,0.46667 -0.65333,0.46666 -1.18222,1.02666 -0.49778,0.59111 -1.02667,1.05778 -0.49777,0.46667 -1.15111,0.46667 -0.59111,0 -0.80889,-0.21778 -0.18666,-0.18667 -0.24889,-0.46667 -0.0311,-0.28 -0.0622,-0.62222 -0.0311,-0.31111 -0.28,-0.56 -0.46666,-0.49778 -0.62222,-0.90222 -0.15555,-0.43556 -0.15555,-1.12 0,-1.49333 0.24888,-2.89333 0.28,-1.43111 0.28,-2.92445 0,-0.52888 -0.12444,-1.02666 -0.12444,-0.49778 -0.31111,-0.90222 -0.15556,-0.40445 -0.28,-0.68445 -0.12445,-0.28 -0.12445,-0.40444 0,-0.28 0.15556,-0.59111 0.15556,-0.31111 0.34222,-0.56 0.21778,-0.28 0.43556,-0.43556 0.24889,-0.18666 0.40444,-0.18666 0.31111,0 0.52889,0.15555 0.24889,0.15556 0.46667,0.34222 0.24889,0.15556 0.46666,0.31111 0.24889,0.15556 0.59111,0.15556 0.0622,0 0.0933,0 0.0311,-0.0311 0.0933,-0.0311 0.43556,0.71555 0.68444,1.55555 0.24889,0.80889 0.49778,1.61778 0.28,0.77778 0.65334,1.52444 0.40444,0.71556 1.11999,1.27556 0.18667,0.15556 0.43556,0.34222 0.24889,0.18667 0.49778,0.37334 0.28,0.18666 0.52889,0.31111 0.28,0.12444 0.49777,0.12444 0.34223,0 0.65334,-0.0622 0.34222,-0.0622 0.68444,-0.0622 0.46667,0 0.46667,0.31111 0,0.0622 -0.0622,0.24889 h 0.37333 0.21778 q 1.18222,0 2.36444,-0.28 1.18222,-0.28 2.39555,-0.28 0.56,0 1.12,0.12444 0.59112,0.0933 1.05778,0.43556 0.59111,-0.28 0.99556,-0.71556 0.40444,-0.43555 0.80889,-0.83999 0.40444,-0.43556 0.90222,-0.74667 0.49777,-0.34222 1.27555,-0.37333 0.15556,-0.18667 0.15556,-0.43556 0.0311,-0.24889 0.0311,-0.46667 0,-0.24889 0.0311,-0.46666 0.0622,-0.21778 0.24889,-0.40445 0.31111,-0.28 0.46667,-0.56 0.18666,-0.31111 0.18666,-0.74666 0,-0.84 -0.46666,-1.55556 -0.46667,-0.74666 -1.21334,-1.33778 -0.71555,-0.62222 -1.68,-1.08888 -0.93333,-0.49778 -1.92889,-0.84 -0.96444,-0.34223 -1.86666,-0.49778 -0.90222,-0.18667 -1.58667,-0.18667 -0.77777,0 -1.55555,0.15556 -0.74667,0.12444 -1.46222,0.46666 0,-0.68444 -0.31111,-0.90222 -0.31112,-0.21778 -0.74667,-0.31111 -0.43556,-0.0933 -0.90222,-0.24889 -0.43556,-0.18666 -0.68445,-0.77777 -0.52889,0.68444 -1.33777,0.99555 -0.77778,0.31111 -1.58667,0.31111 -0.80889,0 -1.49333,-0.31111 -0.68445,-0.31111 -1.24445,-0.84 -0.52889,-0.52889 -0.87111,-1.21333 -0.31111,-0.68445 -0.34222,-1.46222 -0.0311,-0.52889 -0.21778,-0.93334 -0.18666,-0.40444 -0.40444,-0.77777 -0.21778,-0.37334 -0.40445,-0.77778 -0.15555,-0.40445 -0.15555,-0.96445 0,-1.4 0.12444,-2.17777 0.15556,-0.80889 0.37334,-1.21334 0.21777,-0.43555 0.46666,-0.59111 0.28,-0.18666 0.56,-0.34222 0.28,-0.18667 0.52889,-0.49778 0.24889,-0.31111 0.40445,-0.99555 0.0933,-0.46667 0.28,-0.62222 0.18666,-0.15556 0.65333,-0.21778 0.40444,-0.0622 0.52889,-0.18667 0.12444,-0.12444 0.15555,-0.28 0.0622,-0.15555 0.12445,-0.31111 0.0622,-0.18667 0.31111,-0.34222 0.65333,-0.43556 1.27555,-0.52889 0.65334,-0.12444 1.33778,-0.12444 0.40444,0 0.77778,0.0311 0.37333,0 0.80889,0 1.30666,0 2.55111,-0.12445 1.24444,-0.12444 2.55111,-0.12444 0.99555,0 1.80444,0.21778 0.84,0.18666 1.46222,0.43555 0.62222,0.24889 1.05778,0.46667 0.46667,0.18666 0.74667,0.18666 0.52888,0 0.99555,-0.18666 0.49778,-0.21778 1.02667,-0.24889 0.24889,0.21778 0.56,0.40444 0.34222,0.15556 0.68444,0.15556 0.24889,0 0.37333,-0.15556 0.12445,-0.15555 0.15556,-0.40444 0.43555,0.12444 0.84,0.43555 0.40444,0.31111 0.71555,0.74667 0.34223,0.40444 0.52889,0.90222 0.18667,0.46667 0.18667,0.90222 0,1.15111 -0.18667,2.30223 -0.15555,1.11999 -0.15555,2.27111 0,1.18222 0.31111,2.20888 -0.43556,0.34223 -0.96445,0.62223 -0.49777,0.24888 -0.84,0.71555 l -0.0311,-0.0311 q -0.21777,-0.18667 -0.56,-0.46667 -0.31111,-0.31111 -0.68444,-0.59111 -0.34222,-0.28 -0.68444,-0.46666 -0.34223,-0.21778 -0.62223,-0.21778 h -0.0622 q -0.15555,-0.0933 -0.28,-0.21778 -0.0933,-0.12444 -0.0933,-0.31111 0,-0.31111 0.18666,-0.56 0.18667,-0.24889 0.18667,-0.56 0,-0.0933 -0.28,-0.43555 -0.28,-0.34223 -0.65333,-0.68445 -0.34222,-0.37333 -0.68445,-0.65333 -0.34222,-0.31111 -0.49777,-0.34222 -0.31111,-0.0622 -0.65334,-0.21778 -0.34222,-0.15556 -0.68444,-0.31111 -0.34222,-0.15556 -0.65333,-0.28 -0.28,-0.12445 -0.46667,-0.12445 -0.40444,0 -0.80889,0.12445 -0.40444,0.0933 -0.84,0.12444 h 0.0311 l -1.4,-0.15555 q -1.02666,-0.12445 -2.02222,-0.49778 -0.99555,-0.37333 -2.05333,-0.37333 -0.93333,0 -1.36889,0.43555 -0.43555,0.43556 -0.71555,0.99556 -0.28,0.52888 -0.56,0.96444 -0.28,0.43556 -0.93334,0.43556 -0.18666,0 -0.28,-0.0311 0.31111,0.99555 0.56,1.67999 0.28,0.68445 0.65334,1.24445 0.37333,0.52889 0.93333,1.02667 0.56,0.46666 1.43111,1.02666 0.0933,0.0622 0.24889,0.21778 0.18666,0.15555 0.37333,0.34222 0.18667,0.15556 0.34222,0.28 0.18667,0.12445 0.28,0.12445 0.52889,0 0.99556,-0.24889 0.49778,-0.24889 1.02666,-0.24889 0.37334,0 0.68445,0.18666 0.34222,0.15556 0.71555,0.15556 0.37334,0 0.71556,-0.12444 0.34222,-0.15556 0.74667,-0.15556 0.15555,0 0.31111,0.0311 0.18666,0.0311 0.34222,0.0622 0.93333,0.24889 1.86666,0.24889 0.93334,-0.0311 1.89778,0 0.68445,0 1.36889,0.24889 0.71556,0.24889 1.36889,0.65333 0.65333,0.37333 1.21333,0.87111 0.56,0.49778 0.96445,1.02667 0.31111,0.43555 0.68444,0.77778 0.37333,0.34222 0.71556,0.71555 0.37333,0.34222 0.65333,0.74667 0.28,0.40444 0.40444,0.93333 0.15556,0.62222 0.40445,1.36889 0.28,0.74666 0.28,1.33778 z"
         style="font-style:normal;font-variant:normal;font-weight:normal;font-stretch:normal;font-family:'Special Elite';-inkscape-font-specification:'Special Elite';fill:url(#linearGradient918);fill-opacity:1;stroke:#ffffff;stroke-width:15;stroke-linejoin:round;stroke-miterlimit:4;stroke-dasharray:none;stroke-opacity:1;paint-order:stroke fill markers"
         id="path905"
         inkscape:connector-curvature="0" />
      <path
         d="m 219.59764,189.16771 q 0,0.84 -0.28,1.43111 -0.24889,0.59111 -0.68444,1.05778 -0.40445,0.46666 -0.96445,0.87111 -0.52889,0.40444 -1.08889,0.87111 -0.43555,0.37333 -0.77777,0.56 -0.34222,0.18666 -0.68445,0.31111 -0.31111,0.12444 -0.68444,0.24889 -0.34222,0.12444 -0.80889,0.34222 -0.62222,0.31111 -1.05778,0.59111 -0.40444,0.24889 -0.84,0.46667 -0.40444,0.21777 -0.90222,0.34222 -0.49778,0.15555 -1.24444,0.24889 -1.24445,0.15555 -2.52,0.37333 -1.24445,0.21778 -2.48889,0.21778 -0.24889,0 -0.52889,-0.12445 -0.24889,-0.0933 -0.59111,-0.21777 -0.34222,-0.0933 -0.77778,-0.21778 -0.40444,-0.0933 -0.99555,-0.0933 -0.62222,0 -0.99556,-0.18667 -0.37333,-0.18667 -0.68444,-0.43555 -0.28,-0.24889 -0.59111,-0.52889 -0.31111,-0.31111 -0.80889,-0.52889 -1.86667,-0.84 -3.17333,-2.02222 -1.30667,-1.18223 -2.24,-2.64445 -0.93333,-1.46222 -1.55556,-3.17333 -0.62222,-1.71111 -1.05777,-3.57778 -0.34223,-1.30666 -0.34223,-2.61333 0,-1.71111 0.80889,-3.17333 -0.31111,-0.87111 -0.31111,-1.68 0,-0.59111 0.34222,-1.74222 0.34223,-1.18222 0.87111,-2.36444 0.56,-1.18223 1.18223,-2.11556 0.65333,-0.96444 1.21333,-1.18222 0.43555,-0.15556 0.59111,-0.24889 0.18667,-0.12444 0.18667,-0.62222 0,-0.37333 0.28,-0.62222 0.31111,-0.24889 0.71555,-0.40445 0.43556,-0.15555 0.84,-0.28 0.43556,-0.12444 0.71556,-0.24889 1.15111,-0.56 2.17777,-0.93333 1.05778,-0.40444 2.08445,-0.65333 1.05777,-0.28 2.17777,-0.40445 1.12,-0.12444 2.39556,-0.12444 0.68444,0 1.33778,0.18667 0.65333,0.18666 1.24444,0.49777 0.62222,0.28 1.21333,0.65334 0.59111,0.34222 1.15111,0.68444 h -0.0311 q 0.46667,0.0622 0.87111,0.28 0.43556,0.18667 0.90223,0.24889 0.43555,0.52889 1.11999,1.02667 0.71556,0.46666 1.36889,0.99555 0.68445,0.52889 1.15111,1.15111 0.49778,0.59111 0.49778,1.36889 0,0.12444 -0.0311,0.24889 0,0.12444 -0.0311,0.28 l 0.12444,-0.15556 q 0.12445,0.0933 0.21778,0.31111 0.12445,0.21778 0.21778,0.49778 0.0933,0.24889 0.15555,0.52889 0.0622,0.24889 0.0933,0.40444 0.24889,0.40445 0.65333,0.65334 0.43556,0.24889 0.68444,0.68444 -0.31111,0.31111 -0.31111,0.80889 0,0.52889 0.21778,1.05778 0.21778,0.49778 0.21778,1.02666 0,0.62223 -0.0622,1.21334 -0.0622,0.56 -0.0622,1.18222 0,0.46666 -0.37333,0.71555 -0.34222,0.24889 -0.77778,0.43556 -0.40444,0.18667 -0.74666,0.37333 -0.34222,0.18667 -0.34222,0.52889 0,0.24889 -0.31112,0.24889 -0.28,-0.0311 -0.46666,-0.0311 -1.36889,0 -2.73778,-0.34222 -1.33778,-0.34222 -2.67555,-0.34222 -1.46222,0 -2.89334,0.21777 -1.43111,0.18667 -2.89333,0.18667 -1.08889,0 -2.17777,-0.0622 -1.05778,-0.0622 -2.14667,-0.0622 -0.28,0 -1.05778,0.12444 -0.77777,0.0933 -1.64889,0.28 -0.84,0.15556 -1.61777,0.40445 -0.77778,0.21778 -1.08889,0.43555 -0.0311,0.15556 -0.0311,0.43556 0,1.46222 0.84,3.01778 0.87111,1.55555 2.27111,2.83111 1.4,1.27555 3.14222,2.11555 1.74222,0.84 3.51555,0.84 1.02667,0 2.02222,0.0933 1.02667,0.0622 1.99111,0.43556 0.84,-0.40445 1.52445,-0.93334 0.71555,-0.52889 1.36889,-1.12 0.65333,-0.59111 1.27555,-1.21333 0.62222,-0.62222 1.27556,-1.24444 0.12444,-0.12445 0.59111,-0.21778 0.49778,-0.12445 1.05777,-0.18667 0.56,-0.0933 1.05778,-0.12444 0.52889,-0.0622 0.71556,-0.0622 0.71555,0 1.33777,0.21777 0.18667,0.71556 0.18667,1.4 z m -4.66666,-12.63111 q 0,-0.46667 -0.15556,-0.90222 -0.15555,-0.43556 -0.24889,-0.90222 -0.15555,-0.87111 -0.15555,-1.68 0,-0.84 -0.24889,-1.68 h -0.0311 q 0,0.18667 -0.12445,0.37333 -0.12444,0.15556 -0.34222,0.15556 -0.37333,0 -0.71555,-0.18667 -0.34223,-0.18667 -0.59112,-0.46667 -1.18222,-0.52888 -2.14666,-0.99555 -0.93333,-0.46667 -1.89778,-0.80889 -0.93333,-0.37333 -2.02222,-0.56 -1.05778,-0.21778 -2.45778,-0.21778 -0.12444,0 -0.24889,0.0311 -0.0933,0 -0.18666,0.0933 l 0.15555,0.34223 -0.24889,0.0622 q -0.84,0.15555 -1.39999,0.31111 -0.52889,0.12444 -0.96445,0.37333 -0.43555,0.24889 -0.87111,0.62222 -0.40444,0.34222 -1.05778,0.90222 -0.31111,0.28 -0.68444,0.43556 -0.34222,0.12444 -0.71556,0.24889 -0.34222,0.0933 -0.68444,0.21778 -0.31111,0.12444 -0.52889,0.40444 -0.21778,0.77778 -0.65333,1.52444 -0.40445,0.71556 -0.40445,1.52445 0,0.46666 0.37334,0.84 0.40444,0.34222 0.99555,0.59111 0.62222,0.24889 1.33778,0.43555 0.74667,0.18667 1.46222,0.28 0.71556,0.0933 1.30667,0.15556 0.62222,0.0311 0.96444,0.0311 1.18222,0 2.33333,-0.21778 1.15111,-0.24889 2.33334,-0.24889 1.21333,0 2.42666,0.12445 1.21333,0.0933 2.42667,0.0933 0.31111,0 0.93333,-0.0311 0.62222,-0.0311 1.21333,-0.15556 0.62222,-0.15555 1.05778,-0.40444 0.46667,-0.28 0.46667,-0.71556 z"
         style="font-style:normal;font-variant:normal;font-weight:normal;font-stretch:normal;font-family:'Special Elite';-inkscape-font-specification:'Special Elite';fill:url(#linearGradient916);fill-opacity:1;stroke:#ffffff;stroke-width:15;stroke-linejoin:round;stroke-miterlimit:4;stroke-dasharray:none;stroke-opacity:1;paint-order:stroke fill markers"
         id="path907"
         inkscape:connector-curvature="0" />
    </g>
    <rect
       ry="9.0871639"
       rx="9.0871639"
       y="-253.08255"
       x="21.211082"
       height="18.174328"
       width="215.66481"
       id="rect881"
       style="opacity:1;fill:#917c6f;fill-opacity:1;stroke:#483e37;stroke-width:1.39999998;stroke-linecap:round;stroke-miterlimit:10;stroke-dasharray:0, 1.39999999999999991, 2.79999999999999982, 4.20000000000000018, 5.59999999999999964, 7, 8.40000000000000036, 9.80000000000000071, 11.19999999999999929, 12.59999999999999964, 14, 15.40000000000000036, 16.80000000000000071, 18.19999999999999929, 19.60000000000000142;stroke-dashoffset:0;stroke-opacity:1"
       transform="rotate(90)" />
    <rect
       transform="rotate(90)"
       style="opacity:1;fill:#917c6f;fill-opacity:1;stroke:#483e37;stroke-width:1.39999998;stroke-linecap:round;stroke-miterlimit:10;stroke-dasharray:0, 1.39999999999999991, 2.79999999999999982, 4.20000000000000018, 5.59999999999999964, 7, 8.40000000000000036, 9.80000000000000071, 11.19999999999999929, 12.59999999999999964, 14, 15.40000000000000036, 16.80000000000000071, 18.19999999999999929, 19.60000000000000142;stroke-dashoffset:9.5199995;stroke-opacity:1"
       id="rect885"
       width="215.66481"
       height="18.174328"
       x="21.211082"
       y="-19.243404"
       rx="9.0871639"
       ry="9.0871639" />
  </g>
</svg>
