<?xml version="1.0" encoding="UTF-8" standalone="no"?>
<!-- Created with Inkscape (http://www.inkscape.org/) -->

<svg
   xmlns:dc="http://purl.org/dc/elements/1.1/"
   xmlns:cc="http://creativecommons.org/ns#"
   xmlns:rdf="http://www.w3.org/1999/02/22-rdf-syntax-ns#"
   xmlns:svg="http://www.w3.org/2000/svg"
   xmlns="http://www.w3.org/2000/svg"
   xmlns:sodipodi="http://sodipodi.sourceforge.net/DTD/sodipodi-0.dtd"
   xmlns:inkscape="http://www.inkscape.org/namespaces/inkscape"
   width="3300"
   height="1100"
   viewBox="0 0 873.12498 291.04167"
   version="1.1"
   id="svg910"
   sodipodi:docname="diretor.svg"
   inkscape:version="0.92.4 5da689c313, 2019-01-14">
  <defs
     id="defs904" />
  <sodipodi:namedview
     id="base"
     pagecolor="#ffffff"
     bordercolor="#666666"
     borderopacity="1.0"
     inkscape:pageopacity="0.0"
     inkscape:pageshadow="2"
     inkscape:zoom="0.98994948"
     inkscape:cx="1476.3378"
     inkscape:cy="297.6708"
     inkscape:document-units="px"
     inkscape:current-layer="layer1"
     showgrid="false"
     units="px"
     inkscape:object-paths="true"
     inkscape:snap-intersection-paths="true"
     inkscape:snap-smooth-nodes="true"
     inkscape:snap-nodes="false"
     inkscape:window-width="1366"
     inkscape:window-height="705"
     inkscape:window-x="0"
     inkscape:window-y="794"
     inkscape:window-maximized="1"
     showguides="false" />
  <metadata
     id="metadata907">
    <rdf:RDF>
      <cc:Work
         rdf:about="">
        <dc:format>image/svg+xml</dc:format>
        <dc:type
           rdf:resource="http://purl.org/dc/dcmitype/StillImage" />
        <dc:title />
      </cc:Work>
    </rdf:RDF>
  </metadata>
  <g
     inkscape:label="Camada 1"
     inkscape:groupmode="layer"
     id="layer1"
     transform="translate(0,-5.958325)">
    <g
       id="g1260"
       transform="matrix(0.82617955,0,0,0.82617955,39.021157,32.664699)">
      <g
         transform="translate(0,1.3096206)"
         id="g1216">
        <g
           id="g1209">
          <g
             id="g1203">
            <path
               style="fill:none;stroke:#c8ab37;stroke-width:7.9375;stroke-linecap:round;stroke-linejoin:miter;stroke-miterlimit:4;stroke-dasharray:none;stroke-opacity:1"
               d="m 611.81402,248.59628 47.79306,3.19224 5.33977,10.2655"
               id="path1187"
               inkscape:connector-curvature="0" />
          </g>
          <path
             inkscape:connector-curvature="0"
             id="path1189"
             d="m 644.92084,253.68453 -2.13255,8.33164"
             style="fill:none;stroke:#c8ab37;stroke-width:7.9375;stroke-linecap:round;stroke-linejoin:miter;stroke-miterlimit:4;stroke-dasharray:none;stroke-opacity:1" />
          <path
             inkscape:connector-curvature="0"
             id="path1191"
             d="m 630.00337,252.38746 -5.38226,7.24784"
             style="fill:none;stroke:#c8ab37;stroke-width:7.9375;stroke-linecap:round;stroke-linejoin:miter;stroke-miterlimit:4;stroke-dasharray:none;stroke-opacity:1" />
        </g>
      </g>
      <g
         id="g1228"
         transform="matrix(-1,0,0,1,1119.3812,1.3096206)">
        <g
           id="g1226">
          <g
             id="g1220">
            <path
               inkscape:connector-curvature="0"
               id="path1218"
               d="m 611.81402,248.59628 47.79306,3.19224 5.33977,10.2655"
               style="fill:none;stroke:#c8ab37;stroke-width:7.9375;stroke-linecap:round;stroke-linejoin:miter;stroke-miterlimit:4;stroke-dasharray:none;stroke-opacity:1" />
          </g>
          <path
             style="fill:none;stroke:#c8ab37;stroke-width:7.9375;stroke-linecap:round;stroke-linejoin:miter;stroke-miterlimit:4;stroke-dasharray:none;stroke-opacity:1"
             d="m 644.92084,253.68453 -2.13255,8.33164"
             id="path1222"
             inkscape:connector-curvature="0" />
          <path
             style="fill:none;stroke:#c8ab37;stroke-width:7.9375;stroke-linecap:round;stroke-linejoin:miter;stroke-miterlimit:4;stroke-dasharray:none;stroke-opacity:1"
             d="m 630.00337,252.38746 -5.38226,7.24784"
             id="path1224"
             inkscape:connector-curvature="0" />
        </g>
      </g>
      <ellipse
         style="opacity:1;fill:#513c31;fill-opacity:1;stroke:none;stroke-width:9.7460041;stroke-linecap:round;stroke-miterlimit:4;stroke-dasharray:none;stroke-opacity:1"
         id="ellipse1185"
         cx="559.92578"
         cy="164.70834"
         rx="130.70418"
         ry="97.366669" />
      <ellipse
         ry="97.366669"
         rx="79.904175"
         cy="144.60001"
         cx="559.92578"
         id="path1183"
         style="opacity:1;fill:#ac9393;fill-opacity:1;stroke:none;stroke-width:7.62020397;stroke-linecap:round;stroke-miterlimit:4;stroke-dasharray:none;stroke-opacity:1" />
      <path
         inkscape:connector-curvature="0"
         id="circle923"
         d="m 559.16929,-2.4290833 v 5.16e-4 C 537.46682,-2.4285883 516.2089,0.96325801 496.54004,7.3734162 476.8711,13.78361 458.79106,23.212145 443.4451,35.286459 c -15.34598,12.07418 -27.32931,26.299159 -35.47639,41.774691 -8.14707,15.475558 -12.45772,32.2015 -12.45764,49.27705 0.0312,9.42888 1.37811,18.79748 3.99407,27.94143 1.4786,5.16842 4.44721,14.18092 5.6441,15.26005 1.5598,1.40634 8.3669,-1.82295 12.14499,-3.79047 l -5.1e-4,0.002 c 0,0 1.11615,-0.0586 1.53841,0.24339 0.54082,0.3868 0.81028,1.25212 0.81028,1.25212 l 0.002,-0.001 c -0.25181,4.41648 -0.4035,12.3715 1.7942,12.32226 2.08875,-0.0468 21.35337,-1.00203 39.59502,-3.44993 18.24161,-2.44787 35.43763,-6.03168 35.43763,-6.03168 l 10.62413,-57.98714 h 52.83038 52.83036 l 10.62416,57.98714 c 0,0 17.19601,3.58381 35.43763,6.03168 18.24162,2.4479 37.50625,3.40312 39.595,3.44993 2.19771,0.0493 2.04602,-7.90578 1.79419,-12.32226 l 0.002,0.001 c 0,0 0.26946,-0.86532 0.81029,-1.25212 0.42225,-0.30199 1.53839,-0.24339 1.53839,-0.24339 l -5e-4,-0.002 c 3.77809,1.96755 10.58519,5.19681 12.14498,3.79047 1.1969,-1.07913 4.1655,-10.0916 5.6441,-15.26005 2.61596,-9.14392 3.96287,-18.51255 3.99407,-27.94143 8e-5,-17.07555 -4.31054,-33.801492 -12.45765,-49.27705 C 703.7359,61.585618 691.75256,47.360666 676.40659,35.286459 661.0606,23.212172 642.98056,13.78361 623.31162,7.3734162 603.64276,0.96326591 582.38484,-2.4285883 560.68239,-2.4285673 v -5.16e-4 c -0.25233,0 -0.50435,0.0033 -0.75655,0.0041 -0.2522,-7.92e-4 -0.50424,-0.0041 -0.75655,-0.0041 z"
         style="opacity:1;fill:#483737;fill-opacity:1;stroke:none;stroke-width:16.4372673;stroke-linecap:round;stroke-miterlimit:4;stroke-dasharray:none;stroke-opacity:1" />
      <g
         id="g995">
        <path
           style="opacity:1;fill:#916f6f;fill-opacity:1;stroke:none;stroke-width:33.968853;stroke-linecap:round;stroke-miterlimit:4;stroke-dasharray:none;stroke-opacity:1"
           d="m 1567.832,-101.28125 c -12.3591,0.26132 -19.6456,5.62646 -17.9414,19.255859 4.2501,33.99134 29.8799,72.8308743 52.8164,104.357422 16.4728,22.642024 35.081,42.066499 55.1114,60.894531 l -0.014,0.0039 c 0,0 3.9141,7.482787 3.9141,11.546875 0,4.064126 -3.9141,11.546873 -3.9141,11.546873 l 21.582,8.25 21.5821,8.24805 v -0.71094 c 8.1724,7.25119 16.4339,14.6131 24.8437,22.34375 l 389.1855,224.69726 c 0.4314,-1.43445 0.8454,-2.87499 1.2559,-4.31836 0.4105,1.44354 0.8264,2.88374 1.2578,4.31836 L 2506.697,144.45507 c 8.4106,-7.73146 16.6743,-15.09378 24.8476,-22.3457 v 0.71679 l 21.5821,-8.25 21.5839,-8.25 c 0,0 -3.914,-7.482744 -3.914,-11.54687 0,-4.064088 3.914,-11.546875 3.914,-11.546875 l -0.017,-0.0059 c 20.0303,-18.828031 38.6366,-38.252518 55.1093,-60.894531 22.9366,-31.5265281 48.5663,-70.366082 52.8164,-104.357422 1.7042,-13.629392 -5.5822,-18.994692 -17.9414,-19.255862 -31.5843,-0.66784 -96.305,31.994954 -128.8144,45.234378 -46.9843,19.134398 -113.9468,40.822253 -162.3516,47.7773438 -73.4529,10.5541463 -146.684,22.9143202 -194.959,72.7167972 -22.4538,23.164393 -39.0352,50.773301 -50.7382,81.134761 l -0.012,-0.0312 c 0,0 -7.4827,3.91407 -11.5468,3.91406 -4.0641,0 -11.5469,-3.91406 -11.5469,-3.91406 l -0.012,0.0332 C 2092.9942,115.22186 2076.4113,87.612103 2053.957,64.447266 2005.6821,14.644778 1932.451,2.2846181 1858.998,-8.2695312 1810.5933,-15.22461 1743.6308,-36.912484 1696.6465,-56.046875 1664.1371,-69.286314 1599.4163,-101.94908 1567.832,-101.28125 Z"
           transform="matrix(0.26458333,0,0,0.26458333,0,5.958325)"
           id="circle915"
           inkscape:connector-curvature="0" />
        <g
           id="g901">
          <circle
             r="79.375"
             cy="94.681023"
             cx="489.90097"
             id="path883"
             style="opacity:1;fill:#916f6f;fill-opacity:1;stroke:none;stroke-width:8.9875927;stroke-linecap:round;stroke-miterlimit:4;stroke-dasharray:none;stroke-opacity:1" />
          <circle
             style="opacity:1;fill:#c8ab37;fill-opacity:1;stroke:none;stroke-width:6.20341539;stroke-linecap:round;stroke-miterlimit:4;stroke-dasharray:none;stroke-opacity:1"
             id="circle885"
             cx="489.90097"
             cy="94.681023"
             r="54.786205" />
          <circle
             r="36.611877"
             cy="94.681023"
             cx="489.90097"
             id="circle887"
             style="opacity:1;fill:#ffff00;fill-opacity:1;stroke:none;stroke-width:4.14554501;stroke-linecap:round;stroke-miterlimit:4;stroke-dasharray:none;stroke-opacity:1" />
          <path
             sodipodi:nodetypes="sssssssss"
             inkscape:connector-curvature="0"
             id="circle889"
             d="m 512.26372,94.681023 c 0,7.010307 0.18232,13.356947 -4.41174,17.951007 -4.59407,4.59406 -10.94071,7.43555 -17.95101,7.43555 -7.0103,0 -13.35694,-2.84149 -17.95101,-7.43555 -4.59406,-4.59406 -4.41174,-10.9407 -4.41174,-17.951007 0,-7.010305 -0.18232,-13.356944 4.41174,-17.951008 4.59407,-4.594063 10.94071,-7.43555 17.95101,-7.435549 7.0103,10e-7 13.35694,2.841488 17.95101,7.435551 4.59406,4.594062 4.41174,10.940701 4.41174,17.951006 z"
             style="opacity:1;fill:#1a1a1a;fill-opacity:1;stroke:none;stroke-width:2.87450743;stroke-linecap:round;stroke-miterlimit:4;stroke-dasharray:none;stroke-opacity:1" />
          <circle
             r="7.8384809"
             cy="87.310486"
             cx="497.4317"
             id="circle891"
             style="opacity:1;fill:#ffffff;fill-opacity:1;stroke:none;stroke-width:0.88754743;stroke-linecap:round;stroke-miterlimit:4;stroke-dasharray:none;stroke-opacity:1" />
        </g>
        <g
           id="g913"
           transform="translate(140.04923)">
          <circle
             style="opacity:1;fill:#916f6f;fill-opacity:1;stroke:none;stroke-width:8.9875927;stroke-linecap:round;stroke-miterlimit:4;stroke-dasharray:none;stroke-opacity:1"
             id="circle903"
             cx="489.90097"
             cy="94.681023"
             r="79.375" />
          <circle
             r="54.786205"
             cy="94.681023"
             cx="489.90097"
             id="circle905"
             style="opacity:1;fill:#c8ab37;fill-opacity:1;stroke:none;stroke-width:6.20341539;stroke-linecap:round;stroke-miterlimit:4;stroke-dasharray:none;stroke-opacity:1" />
          <circle
             style="opacity:1;fill:#ffff00;fill-opacity:1;stroke:none;stroke-width:4.14554501;stroke-linecap:round;stroke-miterlimit:4;stroke-dasharray:none;stroke-opacity:1"
             id="circle907"
             cx="489.90097"
             cy="94.681023"
             r="36.611877" />
          <path
             style="opacity:1;fill:#1a1a1a;fill-opacity:1;stroke:none;stroke-width:2.87450743;stroke-linecap:round;stroke-miterlimit:4;stroke-dasharray:none;stroke-opacity:1"
             d="m 512.26372,94.681023 c 0,7.010307 0.18232,13.356947 -4.41174,17.951007 -4.59407,4.59406 -10.94071,7.43555 -17.95101,7.43555 -7.0103,0 -13.35694,-2.84149 -17.95101,-7.43555 -4.59406,-4.59406 -4.41174,-10.9407 -4.41174,-17.951007 0,-7.010305 -0.18232,-13.356944 4.41174,-17.951008 4.59407,-4.594063 10.94071,-7.43555 17.95101,-7.435549 7.0103,10e-7 13.35694,2.841488 17.95101,7.435551 4.59406,4.594062 4.41174,10.940701 4.41174,17.951006 z"
             id="path909"
             inkscape:connector-curvature="0"
             sodipodi:nodetypes="sssssssss" />
          <circle
             style="opacity:1;fill:#ffffff;fill-opacity:1;stroke:none;stroke-width:0.88754743;stroke-linecap:round;stroke-miterlimit:4;stroke-dasharray:none;stroke-opacity:1"
             id="circle911"
             cx="497.4317"
             cy="87.310486"
             r="7.8384809" />
        </g>
        <path
           style="opacity:1;fill:#c8ab37;fill-opacity:1;stroke:none;stroke-width:4.35032988;stroke-linecap:round;stroke-miterlimit:4;stroke-dasharray:none;stroke-opacity:1"
           d="m 560.68242,128.61859 a 16.140619,10.304925 0 0 0 -16.14061,10.30487 16.140619,10.304925 0 0 0 0.41032,2.25061 h -0.0202 c 0.95855,2.56729 5.02974,13.44441 7.41964,19.34931 2.67907,6.6193 8.33083,19.49701 8.33083,19.49701 0,0 5.65178,-12.87771 8.33083,-19.49701 2.38989,-5.9049 6.46109,-16.78202 7.41964,-19.34931 h -0.0131 a 16.140619,10.304925 0 0 0 0.40325,-2.25061 16.140619,10.304925 0 0 0 -16.14061,-10.30487 z"
           id="path1473"
           inkscape:connector-curvature="0" />
      </g>
    </g>
    <path
       style="opacity:1;fill:#808080;fill-opacity:1;stroke:none;stroke-width:35;stroke-linecap:round;stroke-miterlimit:4;stroke-dasharray:none;stroke-opacity:1"
       d="m 799.45117,219.6543 c -23.22854,23.22854 -20.79148,354.98586 0,375.77734 20.79148,20.79148 177.78711,22.22336 177.78711,22.22336 V 732.8125 L 1086.334,755.03586 V 617.655 c 0,0 166.1455,-2.49971 185.8691,-22.22336 19.7236,-19.72365 21.2082,-354.56911 0,-375.77734 -21.2082,-21.20823 -449.52339,-23.22854 -472.75193,0 z"
       transform="matrix(0.26458333,0,0,0.26458333,0,5.958325)"
       id="rect9920"
       inkscape:connector-curvature="0"
       sodipodi:nodetypes="zzcccczzz" />
    <text
       xml:space="preserve"
       style="font-style:normal;font-weight:normal;font-size:50.79999971px;line-height:1.25;font-family:sans-serif;letter-spacing:0px;word-spacing:0px;fill:#000000;fill-opacity:1;stroke:none;stroke-width:0.26458332;"
       x="1020.5357"
       y="188.14284"
       id="text884"><tspan
         sodipodi:role="line"
         id="tspan882"
         x="1020.5357"
         y="197.50661"
         style="font-size:50.79999971px;stroke-width:0.26458332;" /></text>
    <g
       id="g945"
       transform="translate(-1.70094)">
      <text
         id="text888"
         y="121.52016"
         x="250.05522"
         style="font-style:normal;font-weight:normal;font-size:7.25372744px;line-height:1.25;font-family:sans-serif;letter-spacing:0px;word-spacing:0px;fill:#000000;fill-opacity:1;stroke:none;stroke-width:0.18134318"
         xml:space="preserve"><tspan
           style="font-style:normal;font-variant:normal;font-weight:bold;font-stretch:normal;font-size:36.26863861px;font-family:sans-serif;-inkscape-font-specification:'sans-serif Bold';stroke-width:0.18134318"
           y="121.52016"
           x="250.05522"
           id="tspan886"
           sodipodi:role="line">h</tspan></text>
      <text
         transform="scale(1,-1)"
         xml:space="preserve"
         style="font-style:normal;font-weight:normal;font-size:7.25372744px;line-height:1.25;font-family:sans-serif;letter-spacing:0px;word-spacing:0px;fill:#000000;fill-opacity:1;stroke:none;stroke-width:0.18134318"
         x="275.43918"
         y="-106.05466"
         id="text892"><tspan
           sodipodi:role="line"
           id="tspan890"
           x="275.43918"
           y="-106.05466"
           style="font-style:normal;font-variant:normal;font-weight:bold;font-stretch:normal;font-size:36.26863861px;font-family:sans-serif;-inkscape-font-specification:'sans-serif Bold';stroke-width:0.18134318">h</tspan></text>
    </g>
    <g
       transform="matrix(1.4322074,0,0,1.4322074,304.78359,-93.25569)"
       id="g530">
      <path
         style="fill:#916f7c;fill-opacity:1;stroke:#614745;stroke-width:2.08637738;stroke-linecap:round;stroke-linejoin:miter;stroke-miterlimit:4;stroke-dasharray:none;stroke-opacity:1"
         d="m 160.37948,187.29466 -6.21535,11.10517"
         id="path6882"
         inkscape:connector-curvature="0" />
      <path
         inkscape:connector-curvature="0"
         id="path6884"
         d="m 154.16413,198.39983 -6.21535,-11.10517"
         style="fill:#916f7c;fill-opacity:1;stroke:#614745;stroke-width:2.08637738;stroke-linecap:round;stroke-linejoin:miter;stroke-miterlimit:4;stroke-dasharray:none;stroke-opacity:1" />
      <path
         inkscape:connector-curvature="0"
         id="path6890"
         d="m 118.94158,197.70474 -6.21535,11.10517"
         style="fill:#916f7c;stroke:#614745;stroke-width:2.08637738;stroke-linecap:round;stroke-linejoin:miter;stroke-miterlimit:4;stroke-dasharray:none;stroke-opacity:1" />
      <path
         style="fill:#916f7c;stroke:#614745;stroke-width:2.08637738;stroke-linecap:round;stroke-linejoin:miter;stroke-miterlimit:4;stroke-dasharray:none;stroke-opacity:1"
         d="m 112.72623,208.80992 -6.21535,-11.10518"
         id="path6892"
         inkscape:connector-curvature="0" />
      <path
         inkscape:connector-curvature="0"
         id="path6896"
         d="m 142.37352,203.86537 -6.21535,11.10517"
         style="fill:#916f7c;stroke:#614745;stroke-width:2.08637738;stroke-linecap:round;stroke-linejoin:miter;stroke-miterlimit:4;stroke-dasharray:none;stroke-opacity:1" />
      <path
         style="fill:#916f7c;stroke:#614745;stroke-width:2.08637738;stroke-linecap:round;stroke-linejoin:miter;stroke-miterlimit:4;stroke-dasharray:none;stroke-opacity:1"
         d="m 136.15817,214.97055 -6.21535,-11.10518"
         id="path6898"
         inkscape:connector-curvature="0" />
      <path
         style="fill:#916f7c;stroke:#614745;stroke-width:2.08637738;stroke-linecap:round;stroke-linejoin:miter;stroke-miterlimit:4;stroke-dasharray:none;stroke-opacity:1"
         d="m 131.79277,190.3342 -6.21535,11.10517"
         id="path6982"
         inkscape:connector-curvature="0" />
      <path
         inkscape:connector-curvature="0"
         id="path6984"
         d="m 125.57742,201.43937 -6.21535,-11.10516"
         style="fill:#916f7c;stroke:#614745;stroke-width:2.08637738;stroke-linecap:round;stroke-linejoin:miter;stroke-miterlimit:4;stroke-dasharray:none;stroke-opacity:1" />
      <path
         inkscape:connector-curvature="0"
         id="path6988"
         d="m 159.00705,205.64224 -6.21535,11.10517"
         style="fill:#916f7c;stroke:#614745;stroke-width:2.08637738;stroke-linecap:round;stroke-linejoin:miter;stroke-miterlimit:4;stroke-dasharray:none;stroke-opacity:1" />
      <path
         style="fill:#916f7c;stroke:#614745;stroke-width:2.08637738;stroke-linecap:round;stroke-linejoin:miter;stroke-miterlimit:4;stroke-dasharray:none;stroke-opacity:1"
         d="m 152.7917,216.74742 -6.21535,-11.10517"
         id="path6990"
         inkscape:connector-curvature="0" />
    </g>
    <rect
       style="opacity:1;fill:#4d4d4d;fill-opacity:1;stroke:none;stroke-width:7.45200539;stroke-linecap:round;stroke-miterlimit:4;stroke-dasharray:none;stroke-opacity:1"
       id="rect9918"
       width="435.11478"
       height="95.147942"
       x="226.48865"
       y="192.36465"
       rx="13.229171"
       ry="13.229171" />
    <g
       id="g677"
       transform="translate(-68.153735,-32.072344)">
      <path
         sodipodi:nodetypes="ccccc"
         inkscape:connector-curvature="0"
         id="rect667"
         d="m 381.00001,208.55356 h 91.47024 l 5.29167,24.19048 H 375.70834 Z"
         style="opacity:1;fill:#ffffff;fill-opacity:1;stroke:none;stroke-width:9.26041698;stroke-linecap:round;stroke-miterlimit:4;stroke-dasharray:none;stroke-opacity:1" />
      <text
         id="text672"
         y="227.09048"
         x="386.44327"
         style="font-style:normal;font-weight:normal;font-size:17.69626617px;line-height:1.25;font-family:sans-serif;letter-spacing:0px;word-spacing:0px;fill:#000000;fill-opacity:1;stroke:none;stroke-width:0.44240662"
         xml:space="preserve"><tspan
           style="stroke-width:0.44240662"
           y="227.09048"
           x="386.44327"
           id="tspan670"
           sodipodi:role="line">DIRETOR</tspan></text>
    </g>
  </g>
</svg>
