<?xml version="1.0" encoding="UTF-8" standalone="no"?>
<!-- Created with Inkscape (http://www.inkscape.org/) -->

<svg
   xmlns:dc="http://purl.org/dc/elements/1.1/"
   xmlns:cc="http://creativecommons.org/ns#"
   xmlns:rdf="http://www.w3.org/1999/02/22-rdf-syntax-ns#"
   xmlns:svg="http://www.w3.org/2000/svg"
   xmlns="http://www.w3.org/2000/svg"
   xmlns:sodipodi="http://sodipodi.sourceforge.net/DTD/sodipodi-0.dtd"
   xmlns:inkscape="http://www.inkscape.org/namespaces/inkscape"
   width="3300"
   height="1100"
   viewBox="0 0 873.12497 291.04166"
   version="1.1"
   id="svg8"
   inkscape:version="0.92.4 5da689c313, 2019-01-14"
   sodipodi:docname="disciplina.svg">
  <defs
     id="defs2" />
  <sodipodi:namedview
     id="base"
     pagecolor="#ffffff"
     bordercolor="#666666"
     borderopacity="1.0"
     inkscape:pageopacity="0.0"
     inkscape:pageshadow="2"
     inkscape:zoom="0.7"
     inkscape:cx="2248.4435"
     inkscape:cy="344.92713"
     inkscape:document-units="px"
     inkscape:current-layer="layer1"
     showgrid="false"
     units="px"
     inkscape:window-width="1366"
     inkscape:window-height="705"
     inkscape:window-x="0"
     inkscape:window-y="794"
     inkscape:window-maximized="1"
     inkscape:snap-nodes="false" />
  <metadata
     id="metadata5">
    <rdf:RDF>
      <cc:Work
         rdf:about="">
        <dc:format>image/svg+xml</dc:format>
        <dc:type
           rdf:resource="http://purl.org/dc/dcmitype/StillImage" />
        <dc:title />
      </cc:Work>
    </rdf:RDF>
  </metadata>
  <g
     inkscape:label="Camada 1"
     inkscape:groupmode="layer"
     id="layer1"
     transform="translate(0,-5.958414)">
    <rect
       style="opacity:1;fill:#008066;fill-opacity:1;stroke:#000000;stroke-width:2.64583326;stroke-linecap:round;stroke-linejoin:bevel;stroke-miterlimit:4;stroke-dasharray:none;stroke-opacity:1"
       id="rect9767"
       width="436.94046"
       height="204.10715"
       x="-41.577381"
       y="-11.428491" />
    <rect
       style="opacity:1;fill:#1a1a1a;fill-opacity:1;stroke:none;stroke-width:4.52358103;stroke-linecap:round;stroke-linejoin:bevel;stroke-miterlimit:4;stroke-dasharray:none;stroke-opacity:1"
       id="rect9775"
       width="145.14285"
       height="7.5595236"
       x="315.20035"
       y="-128.05344"
       transform="rotate(32.864501)"
       ry="3.7797618" />
    <ellipse
       style="opacity:1;fill:#513c31;fill-opacity:1;stroke:none;stroke-width:4.52358103;stroke-linecap:round;stroke-miterlimit:4;stroke-dasharray:none;stroke-opacity:1"
       id="path9769"
       cx="-130.24609"
       cy="497.41446"
       rx="27.970238"
       ry="49.892857"
       transform="matrix(-0.55113728,0.83441458,0.83441458,0.55113728,0,0)" />
    <g
       id="g1216"
       transform="matrix(0.82617956,0,0,0.82617956,160.76983,68.860559)">
      <g
         id="g1209">
        <g
           id="g1203">
          <path
             inkscape:connector-curvature="0"
             id="path1187"
             d="m 611.81402,248.59628 47.79306,3.19224 5.33977,10.2655"
             style="fill:none;stroke:#c8ab37;stroke-width:7.9375;stroke-linecap:round;stroke-linejoin:miter;stroke-miterlimit:4;stroke-dasharray:none;stroke-opacity:1" />
        </g>
        <path
           style="fill:none;stroke:#c8ab37;stroke-width:7.9375;stroke-linecap:round;stroke-linejoin:miter;stroke-miterlimit:4;stroke-dasharray:none;stroke-opacity:1"
           d="m 644.92084,253.68453 -2.13255,8.33164"
           id="path1189"
           inkscape:connector-curvature="0" />
        <path
           style="fill:none;stroke:#c8ab37;stroke-width:7.9375;stroke-linecap:round;stroke-linejoin:miter;stroke-miterlimit:4;stroke-dasharray:none;stroke-opacity:1"
           d="m 630.00337,252.38746 -5.38226,7.24784"
           id="path1191"
           inkscape:connector-curvature="0" />
      </g>
    </g>
    <g
       transform="matrix(-0.82617956,0,0,0.82617956,1085.5797,68.860559)"
       id="g1228">
      <g
         id="g1226">
        <g
           id="g1220">
          <path
             style="fill:none;stroke:#c8ab37;stroke-width:7.9375;stroke-linecap:round;stroke-linejoin:miter;stroke-miterlimit:4;stroke-dasharray:none;stroke-opacity:1"
             d="m 611.81402,248.59628 47.79306,3.19224 5.33977,10.2655"
             id="path1218"
             inkscape:connector-curvature="0" />
        </g>
        <path
           inkscape:connector-curvature="0"
           id="path1222"
           d="m 644.92084,253.68453 -2.13255,8.33164"
           style="fill:none;stroke:#c8ab37;stroke-width:7.9375;stroke-linecap:round;stroke-linejoin:miter;stroke-miterlimit:4;stroke-dasharray:none;stroke-opacity:1" />
        <path
           inkscape:connector-curvature="0"
           id="path1224"
           d="m 630.00337,252.38746 -5.38226,7.24784"
           style="fill:none;stroke:#c8ab37;stroke-width:7.9375;stroke-linecap:round;stroke-linejoin:miter;stroke-miterlimit:4;stroke-dasharray:none;stroke-opacity:1" />
      </g>
    </g>
    <ellipse
       ry="80.442352"
       rx="107.98512"
       cy="203.85724"
       cx="623.36908"
       id="ellipse1185"
       style="opacity:1;fill:#513c31;fill-opacity:1;stroke:none;stroke-width:8.0519495;stroke-linecap:round;stroke-miterlimit:4;stroke-dasharray:none;stroke-opacity:1" />
    <ellipse
       style="opacity:1;fill:#ac9393;fill-opacity:1;stroke:none;stroke-width:6.29565668;stroke-linecap:round;stroke-miterlimit:4;stroke-dasharray:none;stroke-opacity:1"
       id="path1183"
       cx="623.36908"
       cy="187.24414"
       rx="66.015198"
       ry="80.442352" />
    <path
       style="opacity:1;fill:#483737;fill-opacity:1;stroke:none;stroke-width:13.58013439;stroke-linecap:round;stroke-miterlimit:4;stroke-dasharray:none;stroke-opacity:1"
       d="m 622.74407,65.771718 v 4.26e-4 c -17.93014,-1.7e-5 -35.493,2.802257 -51.74301,8.098199 -16.25007,5.295971 -31.18743,13.085634 -43.86595,23.061185 -12.67854,9.975442 -22.57892,21.727832 -29.30987,34.513392 -6.73094,12.78559 -10.29231,26.60423 -10.29225,40.7117 0.0258,7.78994 1.13857,15.53009 3.29982,23.08463 1.22159,4.27005 3.67419,11.71599 4.66304,12.60755 1.28868,1.16188 6.91256,-1.50609 10.03394,-3.13161 l -4.2e-4,0.002 c 0,0 0.92214,-0.0484 1.271,0.20108 0.44682,0.31957 0.66944,1.03448 0.66944,1.03448 l 0.002,-8.3e-4 c -0.20804,3.64881 -0.33336,10.22108 1.48234,10.1804 1.72568,-0.0387 17.64171,-0.82785 32.71259,-2.85026 15.07085,-2.02238 29.27785,-4.98325 29.27785,-4.98325 l 8.77744,-47.90779 h 43.64738 43.64736 l 8.77746,47.90779 c 0,0 14.207,2.96087 29.27785,4.98325 15.07085,2.02241 30.9869,2.81159 32.71258,2.85026 1.8157,0.0407 1.69038,-6.53159 1.48232,-10.1804 l 0.002,8.3e-4 c 0,0 0.22263,-0.71491 0.66945,-1.03448 0.34885,-0.2495 1.27099,-0.20108 1.27099,-0.20108 l -4.2e-4,-0.002 c 3.12138,1.62555 8.74527,4.29349 10.03394,3.13161 0.98885,-0.89156 3.44145,-8.33748 4.66304,-12.60755 2.16125,-7.55452 3.27404,-15.29469 3.29982,-23.08463 6e-5,-14.10747 -3.56128,-27.92611 -10.29226,-40.7117 -6.73079,-12.78556 -16.63118,-24.53793 -29.30971,-34.513392 -12.67854,-9.975529 -27.6159,-17.765214 -43.86598,-23.061185 -16.25001,-5.295935 -33.81287,-8.098216 -51.74299,-8.098199 v -4.26e-4 c -0.20847,0 -0.41668,0.0027 -0.62505,0.0034 -0.20836,-6.54e-4 -0.41659,-0.0034 -0.62504,-0.0034 z"
       id="circle923"
       inkscape:connector-curvature="0" />
    <g
       id="g995"
       transform="matrix(0.82617956,0,0,0.82617956,160.76983,67.778577)">
      <path
         inkscape:connector-curvature="0"
         id="circle915"
         transform="matrix(0.26458333,0,0,0.26458333,0,5.958325)"
         d="m 1567.832,-101.28125 c -12.3591,0.26132 -19.6456,5.62646 -17.9414,19.255859 4.2501,33.99134 29.8799,72.8308743 52.8164,104.357422 16.4728,22.642024 35.081,42.066499 55.1114,60.894531 l -0.014,0.0039 c 0,0 3.9141,7.482787 3.9141,11.546875 0,4.064126 -3.9141,11.546873 -3.9141,11.546873 l 21.582,8.25 21.5821,8.24805 v -0.71094 c 8.1724,7.25119 16.4339,14.6131 24.8437,22.34375 l 389.1855,224.69726 c 0.4314,-1.43445 0.8454,-2.87499 1.2559,-4.31836 0.4105,1.44354 0.8264,2.88374 1.2578,4.31836 L 2506.697,144.45507 c 8.4106,-7.73146 16.6743,-15.09378 24.8476,-22.3457 v 0.71679 l 21.5821,-8.25 21.5839,-8.25 c 0,0 -3.914,-7.482744 -3.914,-11.54687 0,-4.064088 3.914,-11.546875 3.914,-11.546875 l -0.017,-0.0059 c 20.0303,-18.828031 38.6366,-38.252518 55.1093,-60.894531 22.9366,-31.5265281 48.5663,-70.366082 52.8164,-104.357422 1.7042,-13.629392 -5.5822,-18.994692 -17.9414,-19.255862 -31.5843,-0.66784 -96.305,31.994954 -128.8144,45.234378 -46.9843,19.134398 -113.9468,40.822253 -162.3516,47.7773438 -73.4529,10.5541463 -146.684,22.9143202 -194.959,72.7167972 -22.4538,23.164393 -39.0352,50.773301 -50.7382,81.134761 l -0.012,-0.0312 c 0,0 -7.4827,3.91407 -11.5468,3.91406 -4.0641,0 -11.5469,-3.91406 -11.5469,-3.91406 l -0.012,0.0332 C 2092.9942,115.22186 2076.4113,87.612103 2053.957,64.447266 2005.6821,14.644778 1932.451,2.2846181 1858.998,-8.2695312 1810.5933,-15.22461 1743.6308,-36.912484 1696.6465,-56.046875 1664.1371,-69.286314 1599.4163,-101.94908 1567.832,-101.28125 Z"
         style="opacity:1;fill:#916f6f;fill-opacity:1;stroke:none;stroke-width:33.968853;stroke-linecap:round;stroke-miterlimit:4;stroke-dasharray:none;stroke-opacity:1" />
      <g
         id="g901">
        <circle
           style="opacity:1;fill:#916f6f;fill-opacity:1;stroke:none;stroke-width:8.9875927;stroke-linecap:round;stroke-miterlimit:4;stroke-dasharray:none;stroke-opacity:1"
           id="path883"
           cx="489.90097"
           cy="94.681023"
           r="79.375" />
        <circle
           r="54.786205"
           cy="94.681023"
           cx="489.90097"
           id="circle885"
           style="opacity:1;fill:#c8ab37;fill-opacity:1;stroke:none;stroke-width:6.20341539;stroke-linecap:round;stroke-miterlimit:4;stroke-dasharray:none;stroke-opacity:1" />
        <circle
           style="opacity:1;fill:#ffff00;fill-opacity:1;stroke:none;stroke-width:4.14554501;stroke-linecap:round;stroke-miterlimit:4;stroke-dasharray:none;stroke-opacity:1"
           id="circle887"
           cx="489.90097"
           cy="94.681023"
           r="36.611877" />
        <path
           style="opacity:1;fill:#1a1a1a;fill-opacity:1;stroke:none;stroke-width:2.87450743;stroke-linecap:round;stroke-miterlimit:4;stroke-dasharray:none;stroke-opacity:1"
           d="m 512.26372,94.681023 c 0,7.010307 0.18232,13.356947 -4.41174,17.951007 -4.59407,4.59406 -10.94071,7.43555 -17.95101,7.43555 -7.0103,0 -13.35694,-2.84149 -17.95101,-7.43555 -4.59406,-4.59406 -4.41174,-10.9407 -4.41174,-17.951007 0,-7.010305 -0.18232,-13.356944 4.41174,-17.951008 4.59407,-4.594063 10.94071,-7.43555 17.95101,-7.435549 7.0103,10e-7 13.35694,2.841488 17.95101,7.435551 4.59406,4.594062 4.41174,10.940701 4.41174,17.951006 z"
           id="circle889"
           inkscape:connector-curvature="0"
           sodipodi:nodetypes="sssssssss" />
        <circle
           style="opacity:1;fill:#ffffff;fill-opacity:1;stroke:none;stroke-width:0.88754743;stroke-linecap:round;stroke-miterlimit:4;stroke-dasharray:none;stroke-opacity:1"
           id="circle891"
           cx="497.4317"
           cy="87.310486"
           r="7.8384809" />
      </g>
      <g
         transform="translate(140.04923)"
         id="g913">
        <circle
           r="79.375"
           cy="94.681023"
           cx="489.90097"
           id="circle903"
           style="opacity:1;fill:#916f6f;fill-opacity:1;stroke:none;stroke-width:8.9875927;stroke-linecap:round;stroke-miterlimit:4;stroke-dasharray:none;stroke-opacity:1" />
        <circle
           style="opacity:1;fill:#c8ab37;fill-opacity:1;stroke:none;stroke-width:6.20341539;stroke-linecap:round;stroke-miterlimit:4;stroke-dasharray:none;stroke-opacity:1"
           id="circle905"
           cx="489.90097"
           cy="94.681023"
           r="54.786205" />
        <circle
           r="36.611877"
           cy="94.681023"
           cx="489.90097"
           id="circle907"
           style="opacity:1;fill:#ffff00;fill-opacity:1;stroke:none;stroke-width:4.14554501;stroke-linecap:round;stroke-miterlimit:4;stroke-dasharray:none;stroke-opacity:1" />
        <path
           sodipodi:nodetypes="sssssssss"
           inkscape:connector-curvature="0"
           id="path909"
           d="m 512.26372,94.681023 c 0,7.010307 0.18232,13.356947 -4.41174,17.951007 -4.59407,4.59406 -10.94071,7.43555 -17.95101,7.43555 -7.0103,0 -13.35694,-2.84149 -17.95101,-7.43555 -4.59406,-4.59406 -4.41174,-10.9407 -4.41174,-17.951007 0,-7.010305 -0.18232,-13.356944 4.41174,-17.951008 4.59407,-4.594063 10.94071,-7.43555 17.95101,-7.435549 7.0103,10e-7 13.35694,2.841488 17.95101,7.435551 4.59406,4.594062 4.41174,10.940701 4.41174,17.951006 z"
           style="opacity:1;fill:#1a1a1a;fill-opacity:1;stroke:none;stroke-width:2.87450743;stroke-linecap:round;stroke-miterlimit:4;stroke-dasharray:none;stroke-opacity:1" />
        <circle
           r="7.8384809"
           cy="87.310486"
           cx="497.4317"
           id="circle911"
           style="opacity:1;fill:#ffffff;fill-opacity:1;stroke:none;stroke-width:0.88754743;stroke-linecap:round;stroke-miterlimit:4;stroke-dasharray:none;stroke-opacity:1" />
      </g>
      <path
         inkscape:connector-curvature="0"
         id="path1473"
         d="m 560.68242,128.61859 a 16.140619,10.304925 0 0 0 -16.14061,10.30487 16.140619,10.304925 0 0 0 0.41032,2.25061 h -0.0202 c 0.95855,2.56729 5.02974,13.44441 7.41964,19.34931 2.67907,6.6193 8.33083,19.49701 8.33083,19.49701 0,0 5.65178,-12.87771 8.33083,-19.49701 2.38989,-5.9049 6.46109,-16.78202 7.41964,-19.34931 h -0.0131 a 16.140619,10.304925 0 0 0 0.40325,-2.25061 16.140619,10.304925 0 0 0 -16.14061,-10.30487 z"
         style="opacity:1;fill:#c8ab37;fill-opacity:1;stroke:none;stroke-width:4.35032988;stroke-linecap:round;stroke-miterlimit:4;stroke-dasharray:none;stroke-opacity:1" />
    </g>
    <path
       style="opacity:1;fill:#000000;fill-opacity:1;stroke:none;stroke-width:6.65185404;stroke-linecap:round;stroke-miterlimit:4;stroke-dasharray:none;stroke-opacity:1"
       d="m 484.18515,99.943123 a 72.569369,72.569369 0 0 0 -9.9169,36.476807 72.569369,72.569369 0 0 0 72.56941,72.56941 72.569369,72.569369 0 0 0 72.56941,-72.56941 72.569369,72.569369 0 0 0 -3.81367,-22.85202 c 3.42178,-0.84369 7.51332,-1.67535 10.30776,-1.65999 2.59795,0.0143 6.36575,0.81335 9.56278,1.63215 a 72.569369,72.569369 0 0 0 -3.77023,22.87986 72.569369,72.569369 0 0 0 72.56939,72.56941 72.569369,72.569369 0 0 0 72.5698,-72.56941 72.569369,72.569369 0 0 0 -9.93732,-36.476807 H 641.6106 625.54036 609.47014 Z m 10.60733,14.606607 h 104.07365 a 60.28287,56.705512 0 0 1 8.25432,28.50274 60.28287,56.705512 0 0 1 -60.28279,56.70556 60.28287,56.705512 0 0 1 -60.28278,-56.70556 60.28287,56.705512 0 0 1 8.2376,-28.50274 z m 157.42583,0 H 756.2916 a 60.28287,56.705512 0 0 1 8.25468,28.50274 60.28287,56.705512 0 0 1 -60.28318,56.70556 60.28287,56.705512 0 0 1 -60.28277,-56.70556 60.28287,56.705512 0 0 1 8.23798,-28.50274 z"
       id="path2068"
       inkscape:connector-curvature="0" />
    <text
       xml:space="preserve"
       style="font-style:normal;font-weight:normal;font-size:6.3393898px;line-height:1.25;font-family:sans-serif;letter-spacing:0px;word-spacing:0px;fill:#ffffff;fill-opacity:1;stroke:none;stroke-width:0.15848474"
       x="229.09334"
       y="70.214371"
       id="text9816"><tspan
         sodipodi:role="line"
         id="tspan9814"
         x="229.09334"
         y="70.214371"
         style="font-size:30.42907333px;fill:#ffffff;stroke-width:0.15848474">2 + 2 = ?</tspan></text>
    <text
       id="text9820"
       y="70.214371"
       x="18.938581"
       style="font-style:normal;font-weight:normal;font-size:6.3393898px;line-height:1.25;font-family:sans-serif;letter-spacing:0px;word-spacing:0px;fill:#ffffff;fill-opacity:1;stroke:none;stroke-width:0.15848474"
       xml:space="preserve"><tspan
         style="font-size:30.42907333px;fill:#ffffff;stroke-width:0.15848474"
         y="70.214371"
         x="18.938581"
         id="tspan9818"
         sodipodi:role="line">2 * 2 = ?</tspan></text>
    <text
       xml:space="preserve"
       style="font-style:normal;font-weight:normal;font-size:6.3393898px;line-height:1.25;font-family:sans-serif;letter-spacing:0px;word-spacing:0px;fill:#ffffff;fill-opacity:1;stroke:none;stroke-width:0.15848474"
       x="18.938581"
       y="148.07747"
       id="text9824"><tspan
         sodipodi:role="line"
         id="tspan9822"
         x="18.938581"
         y="148.07747"
         style="font-size:30.42907333px;fill:#ffffff;stroke-width:0.15848474">2 / 2 = ?</tspan></text>
    <text
       id="text9828"
       y="148.07747"
       x="229.09334"
       style="font-style:normal;font-weight:normal;font-size:6.3393898px;line-height:1.25;font-family:sans-serif;letter-spacing:0px;word-spacing:0px;fill:#ffffff;fill-opacity:1;stroke:none;stroke-width:0.15848474"
       xml:space="preserve"><tspan
         style="font-size:30.42907333px;fill:#ffffff;stroke-width:0.15848474"
         y="148.07747"
         x="229.09334"
         id="tspan9826"
         sodipodi:role="line">2 - 2 = ?</tspan></text>
    <g
       id="g1235"
       transform="matrix(1.2601046,0,0,1.2601046,-180.55148,-59.084404)">
      <path
         inkscape:connector-curvature="0"
         id="path6988"
         d="m 669.84817,231.77588 -6.21535,11.10517"
         style="fill:#916f7c;stroke:#614745;stroke-width:2.08637738;stroke-linecap:round;stroke-linejoin:miter;stroke-miterlimit:4;stroke-dasharray:none;stroke-opacity:1" />
      <path
         style="fill:#916f7c;stroke:#614745;stroke-width:2.08637738;stroke-linecap:round;stroke-linejoin:miter;stroke-miterlimit:4;stroke-dasharray:none;stroke-opacity:1"
         d="m 663.63282,242.88106 -6.21535,-11.10517"
         id="path6990"
         inkscape:connector-curvature="0" />
    </g>
    <g
       transform="matrix(1.2601046,0,0,1.2601046,-215.70326,-66.643928)"
       id="g1241">
      <path
         style="fill:#916f7c;stroke:#614745;stroke-width:2.08637738;stroke-linecap:round;stroke-linejoin:miter;stroke-miterlimit:4;stroke-dasharray:none;stroke-opacity:1"
         d="m 669.84817,231.77588 -6.21535,11.10517"
         id="path1237"
         inkscape:connector-curvature="0" />
      <path
         inkscape:connector-curvature="0"
         id="path1239"
         d="m 663.63282,242.88106 -6.21535,-11.10517"
         style="fill:#916f7c;stroke:#614745;stroke-width:2.08637738;stroke-linecap:round;stroke-linejoin:miter;stroke-miterlimit:4;stroke-dasharray:none;stroke-opacity:1" />
    </g>
    <g
       id="g1247"
       transform="matrix(1.2601046,0,0,1.2601046,-190.75683,-81.384999)">
      <path
         inkscape:connector-curvature="0"
         id="path1243"
         d="m 669.84817,231.77588 -6.21535,11.10517"
         style="fill:#916f7c;stroke:#614745;stroke-width:2.08637738;stroke-linecap:round;stroke-linejoin:miter;stroke-miterlimit:4;stroke-dasharray:none;stroke-opacity:1" />
      <path
         style="fill:#916f7c;stroke:#614745;stroke-width:2.08637738;stroke-linecap:round;stroke-linejoin:miter;stroke-miterlimit:4;stroke-dasharray:none;stroke-opacity:1"
         d="m 663.63282,242.88106 -6.21535,-11.10517"
         id="path1245"
         inkscape:connector-curvature="0" />
    </g>
    <g
       transform="matrix(1.2601046,0,0,1.2601046,-231.95623,-84.030832)"
       id="g1253">
      <path
         style="fill:#916f7c;stroke:#614745;stroke-width:2.08637738;stroke-linecap:round;stroke-linejoin:miter;stroke-miterlimit:4;stroke-dasharray:none;stroke-opacity:1"
         d="m 669.84817,231.77588 -6.21535,11.10517"
         id="path1249"
         inkscape:connector-curvature="0" />
      <path
         inkscape:connector-curvature="0"
         id="path1251"
         d="m 663.63282,242.88106 -6.21535,-11.10517"
         style="fill:#916f7c;stroke:#614745;stroke-width:2.08637738;stroke-linecap:round;stroke-linejoin:miter;stroke-miterlimit:4;stroke-dasharray:none;stroke-opacity:1" />
    </g>
    <g
       id="g1259"
       transform="matrix(1.2601046,0,0,1.2601046,-239.89373,-61.730237)">
      <path
         inkscape:connector-curvature="0"
         id="path1255"
         d="m 669.84817,231.77588 -6.21535,11.10517"
         style="fill:#916f7c;stroke:#614745;stroke-width:2.08637738;stroke-linecap:round;stroke-linejoin:miter;stroke-miterlimit:4;stroke-dasharray:none;stroke-opacity:1" />
      <path
         style="fill:#916f7c;stroke:#614745;stroke-width:2.08637738;stroke-linecap:round;stroke-linejoin:miter;stroke-miterlimit:4;stroke-dasharray:none;stroke-opacity:1"
         d="m 663.63282,242.88106 -6.21535,-11.10517"
         id="path1257"
         inkscape:connector-curvature="0" />
    </g>
    <g
       transform="matrix(1.2601046,0,0,1.2601046,-203.98599,-46.61119)"
       id="g1265">
      <path
         style="fill:#916f7c;stroke:#614745;stroke-width:2.08637738;stroke-linecap:round;stroke-linejoin:miter;stroke-miterlimit:4;stroke-dasharray:none;stroke-opacity:1"
         d="m 669.84817,231.77588 -6.21535,11.10517"
         id="path1261"
         inkscape:connector-curvature="0" />
      <path
         inkscape:connector-curvature="0"
         id="path1263"
         d="m 663.63282,242.88106 -6.21535,-11.10517"
         style="fill:#916f7c;stroke:#614745;stroke-width:2.08637738;stroke-linecap:round;stroke-linejoin:miter;stroke-miterlimit:4;stroke-dasharray:none;stroke-opacity:1" />
    </g>
    <g
       id="g1271"
       transform="matrix(1.2601046,0,0,1.2601046,-225.15266,-46.233214)">
      <path
         inkscape:connector-curvature="0"
         id="path1267"
         d="m 669.84817,231.77588 -6.21535,11.10517"
         style="fill:#916f7c;stroke:#614745;stroke-width:2.08637738;stroke-linecap:round;stroke-linejoin:miter;stroke-miterlimit:4;stroke-dasharray:none;stroke-opacity:1" />
      <path
         style="fill:#916f7c;stroke:#614745;stroke-width:2.08637738;stroke-linecap:round;stroke-linejoin:miter;stroke-miterlimit:4;stroke-dasharray:none;stroke-opacity:1"
         d="m 663.63282,242.88106 -6.21535,-11.10517"
         id="path1269"
         inkscape:connector-curvature="0" />
    </g>
    <g
       transform="matrix(1.2601046,0,0,1.2601046,-256.90266,-75.33738)"
       id="g1277">
      <path
         style="fill:#916f7c;stroke:#614745;stroke-width:2.08637738;stroke-linecap:round;stroke-linejoin:miter;stroke-miterlimit:4;stroke-dasharray:none;stroke-opacity:1"
         d="m 669.84817,231.77588 -6.21535,11.10517"
         id="path1273"
         inkscape:connector-curvature="0" />
      <path
         inkscape:connector-curvature="0"
         id="path1275"
         d="m 663.63282,242.88106 -6.21535,-11.10517"
         style="fill:#916f7c;stroke:#614745;stroke-width:2.08637738;stroke-linecap:round;stroke-linejoin:miter;stroke-miterlimit:4;stroke-dasharray:none;stroke-opacity:1" />
    </g>
  </g>
</svg>
