<svg xmlns="http://www.w3.org/2000/svg" viewBox="0 0 360.93016 283.97521">
	<defs />
	<g transform="translate(104.26211 3.7376003)">
		<ellipse cx="187.15111" cy="51.865799" fill="#513c31" rx="27.970238" ry="49.892857" transform="scale(-1 1) rotate(56.5549297)" />
		<ellipse cx="-148.51089" cy="-169.84155" fill="#513c31" rx="27.970238" ry="49.892857" transform="rotate(-123.445)" />
		<ellipse cx="271.14749" cy="-75.304077" fill="#513c31" rx="27.970238" ry="49.892857" transform="rotate(56.555)" />
		<ellipse cx="-64.514305" cy="-297.01129" fill="#513c31" rx="27.970238" ry="49.892857" transform="scale(1 -1) rotate(56.55493)" />
		<path fill="none" stroke="#c8ab37" stroke-linecap="round" stroke-width="6.557803750000001" d="M118.46390295 265.79874874l39.48558094 2.63735887 4.4116012 8.4811316M145.81603359 270.0025496l-1.76186617 6.88341876M133.49154612 268.93093874l-4.4467055 5.9880069M32.33741705 265.79874874L-7.1481639 268.4361076l-4.4116012 8.4811316M4.98528641 270.0025496l1.76186617 6.88341876M17.30977388 268.93093874l4.4467055 5.9880069" />
		<ellipse cx="75.595032" cy="195.4104" fill="#513c31" rx="107.98493" ry="80.442207" />
		<ellipse cx="75.595032" cy="178.79732" fill="#ac9393" rx="66.015076" ry="80.442207" />
		<path fill="#483737" d="M74.969968 57.325111v.000529c-17.9301-.000015-35.49293 2.802261-51.742918 8.098198C6.9770081 70.719793-7.9603319 78.509444-20.638822 88.484979c-12.678521 9.975301-22.57889 21.727681-29.30981 34.513231-6.73095 12.78556-10.29231 26.60416-10.29224 40.71161.0258 7.78994 1.13856 15.53007 3.29981 23.08461 1.2216 4.27002 3.6742 11.71596 4.66304 12.6075 1.28867 1.1619 6.91254-1.50608 10.03392-3.13159l-.000397.002s.92214-.0484 1.27098.20108c.44682.31957.66944 1.03447.66944 1.03447l.002-.00079c-.20806 3.64879-.33338 10.22106 1.48232 10.18036 1.72567-.0386 17.641682-.82785 32.7125411-2.85024 15.07082-2.02238 29.2777889-4.98324 29.2777889-4.98324l8.777431-47.9077h87.294588l8.77745 47.9077s14.20696 2.96086 29.27779 4.98324c15.07084 2.02239 30.98685 2.81158 32.71252 2.85024 1.8157.0408 1.69038-6.53157 1.48233-10.18036l.002.00079s.22262-.7149.66945-1.03447c.34884-.2495 1.27099-.20108 1.27099-.20108l-.00053-.002c3.12138 1.62555 8.74526 4.29349 10.03392 3.13159.98885-.89154 3.44143-8.33744 4.66304-12.6075 2.16122-7.55452 3.27403-15.29467 3.2998-23.08461.00005-14.10745-3.56129-27.92605-10.29224-40.71161-6.73081-12.78555-16.63118-24.5379-29.30969-34.513344-12.67852-9.97552-27.61586-17.765186-43.8659-23.061142-16.24999-5.295937-33.812822-8.098213-51.742902-8.098197v-.00053c-.20847 0-.41669.0019-.62504.0036-.20836-.000529-.4166-.0036-.62505-.0036z" />
		<path fill="#916f6f" d="M-44.286442 42.115242c-2.70161.05713-4.29438 1.229908-3.92187 4.209193.92905 7.430267 6.53154 15.92031 11.5453 22.811793 3.600841 4.949396 7.668471 9.19544 12.04696 13.311126l-.004.000794s.855581 1.635681.855581 2.524054c0 .888391-.855581 2.524074-.855581 2.524074l4.717672 1.803382 4.71769 1.802969v-.155419c1.786429 1.58506 3.592338 3.19432 5.4306501 4.884189L75.319188 144.94863c.0943-.31355.18478-.62845.27452-.94396.0898.31555.18063.63037.27494.94396l85.073232-49.117174c1.8385-1.69005 3.64488-3.299399 5.43151-4.884611v.156689l4.71768-1.803379 4.71809-1.80341s-.85556-1.63566-.85556-2.524049c0-.888391.85556-2.524072.85556-2.524072l-.004-.0013c4.37849-4.115665 8.4457-8.36173 12.0465-13.311105 5.01378-6.891486 10.61625-15.381544 11.5453-22.811814.37253-2.979285-1.22022-4.152101-3.92187-4.209193-6.9041-.145994-21.05159 6.993879-28.15791 9.887926-10.27045 4.182642-24.90796 8.923457-35.48892 10.443792-16.05629 2.307059-32.064092 5.008902-42.616662 15.895376-4.90825 5.063577-8.53283 11.098681-11.09102 17.735481l-.002-.007s-1.63566.855573-2.52403.855573c-.88839 0-2.52408-.855573-2.52408-.855573l-.002.007c-2.55701-6.636932-6.18192-12.67222-11.09027-17.73589-10.55256-10.886472-26.56035-13.588315-42.616658-15.895389-10.5809199-1.520322-25.2184609-6.261153-35.488891-10.443795-7.106322-2.894044-21.253841-10.033883-28.157951-9.887908z" />
		<g fill="#916f7c" stroke="#614745" stroke-linecap="round" stroke-width="2.08637738">
			<path stroke-width="4.039852520894" d="M68.66629096 193.51957355L56.6314839 215.02255864M56.6314839 215.022578l-12.03480707-21.50298509" />
		</g>
		<circle cx="17.742039" cy="137.55534" r="65.577888" fill="#916f6f" />
		<circle cx="133.26413" cy="137.55534" r="65.577888" fill="#916f6f" />
		<circle cx="17.742039" cy="137.55534" r="51.646248" fill="#c8ab37" />
		<circle cx="133.44756" cy="137.55534" r="51.646248" fill="#c8ab37" />
		<path fill="#c8ab37" d="M76.220078 165.59383a13.335026 8.5137035 0 00-13.33501 8.51365 13.335026 8.5137035 0 00.339 1.85942h-.0163c.79193 2.12103 4.15546 11.10748 6.12994 15.98598 2.21339 5.46872 6.88275 16.108 6.88275 16.108s4.66938-10.63928 6.88276-16.108c1.97446-4.8785 5.33801-13.86495 6.12993-15.98598h-.0109a13.335026 8.5137035 0 00.33316-1.85942 13.335026 8.5137035 0 00-13.33501-8.51365z" />
		<path fill="#1a1a1a" d="M53.87150629 137.55536525c0 11.32590827.29467311 21.57961846-7.12763256 29.00179718-7.42219686 7.42219686-17.67590705 12.01293478-29.00181532 12.01293478-11.32589014 0-21.57954592-4.59073792-29.00177905-12.01293478-7.42217872-7.42217872-7.1276507-17.67588891-7.1276507-29.00179718 0-11.3259264-.29467311-21.57961847 7.1276507-29.00181532 7.42223313-7.42219686 17.67588891-12.01293479 29.00177905-12.01293479 11.32590827 0 21.57961846 4.59073793 29.00181532 12.01293479 7.42219685 7.42219685 7.12763256 17.67588891 7.12763256 29.00181532z" />
		<circle cx="535.82257" cy="200.79668" r="6.9827652" fill="#fff" transform="matrix(1.8136 0 0 1.8136 -941.8569 -238.51664)" />
		<circle cx="535.82257" cy="200.79668" r="6.9827652" fill="#fff" transform="matrix(2.57718 0 0 2.57718 -1375.2369492 -365.6664042)" />
		<path fill="#1a1a1a" d="M169.57699629 137.55536525c0 11.32590827.29467311 21.57961846-7.12763256 29.00179718-7.42219686 7.42219686-17.67590705 12.01293478-29.00181532 12.01293478-11.32589014 0-21.57954592-4.59073792-29.00177905-12.01293478-7.42217872-7.42217872-7.1276507-17.67588891-7.1276507-29.00179718 0-11.3259264-.29467311-21.57961847 7.1276507-29.00181532 7.42223313-7.42219686 17.67588891-12.01293479 29.00177905-12.01293479 11.32590827 0 21.57961846 4.59073793 29.00181532 12.01293479 7.42219685 7.42219685 7.12763256 17.67588891 7.12763256 29.00181532z" />
		<circle cx="535.82257" cy="200.79668" r="6.9827652" fill="#fff" transform="matrix(1.8136 0 0 1.8136 -826.15141 -238.51664)" />
		<circle cx="535.82257" cy="200.79668" r="6.9827652" fill="#fff" transform="matrix(2.57718 0 0 2.57718 -1259.5314592 -365.6664042)" />
		<path stroke="#fff" stroke-linecap="round" stroke-width=".61854786" d="M54.362298-3.3903061L128.00326 22.203517 66.716418 69.853868-6.9245199 44.260055z" />
		<path d="M25.449658 56.16939l3.05213 18.536626a15.995585 38.349968 80.649928 0040.43942 9.552379 15.995585 38.349968 80.649928 0035.241722-22.013566l-3.02653-18.381181-34.325202 26.687643z" />
		<path fill="none" stroke="#d6d200" stroke-linecap="round" stroke-width="2.95665884" d="M37.40375 101.08032l-7.225792-43.88473 27.96808-25.800368" />
		<path fill="#d6d200" d="M32.143169 90.793305c.63281-1.16332 1.86648-2.175391 3.173169-2.39054 1.306701-.215151 2.799731.347959 3.772112 1.246971 2.343498 2.166689 3.707748 8.827874 3.707748 8.827874s.0197 4.08199.3684 6.08333c.29538 1.69549 2.14438 3.38115 1.44918 4.95551-.80741 1.82852-3.41511 2.30861-5.387398 2.63335-1.972302.32475-4.596252.70607-5.947291-.76705-1.163259-1.26836.0477-3.45785-.21613-5.15854-.311399-2.00747-1.60146-5.88029-1.60146-5.88029s-.843441-6.746945.68167-9.550615z" />
		<g fill="#916f7c" stroke="#614745" stroke-linecap="round" stroke-width="2.08637738">
			<path stroke-width="4.039852520894" d="M126.16829096 205.51610355l-12.03480706 21.50298509M114.1334839 227.019108l-12.03480707-21.50298509" />
		</g>
		<g fill="#916f7c" stroke="#614745" stroke-linecap="round" stroke-width="2.08637738">
			<path stroke-width="4.039852520894" d="M100.62269096 224.81566355L88.5878839 246.31864864M88.5878839 246.318668l-12.03480707-21.50298509" />
		</g>
		<g fill="#916f7c" stroke="#614745" stroke-linecap="round" stroke-width="2.08637738">
			<path stroke-width="4.039852520894" d="M62.96409096 219.77580355L50.9292839 241.27878864M50.9292839 241.278808l-12.03480707-21.50298509" />
		</g>
	</g>
</svg>
