<?xml version="1.0" encoding="UTF-8" standalone="no"?>
<svg
   xmlns:dc="http://purl.org/dc/elements/1.1/"
   xmlns:cc="http://creativecommons.org/ns#"
   xmlns:rdf="http://www.w3.org/1999/02/22-rdf-syntax-ns#"
   xmlns:svg="http://www.w3.org/2000/svg"
   xmlns="http://www.w3.org/2000/svg"
   xmlns:sodipodi="http://sodipodi.sourceforge.net/DTD/sodipodi-0.dtd"
   xmlns:inkscape="http://www.inkscape.org/namespaces/inkscape"
   inkscape:version="1.0 (4035a4fb49, 2020-05-01)"
   sodipodi:docname="loading.svg"
   xml:space="preserve"
   style="enable-background:new 0 0 512 512;"
   viewBox="0 0 512 512"
   y="0px"
   x="0px"
   id="Layer_1"
   version="1.1"><metadata
   id="metadata53"><rdf:RDF><cc:Work
       rdf:about=""><dc:format>image/svg+xml</dc:format><dc:type
         rdf:resource="http://purl.org/dc/dcmitype/StillImage" /></cc:Work></rdf:RDF></metadata><defs
   id="defs51" /><sodipodi:namedview
   inkscape:current-layer="Layer_1"
   inkscape:window-maximized="1"
   inkscape:window-y="0"
   inkscape:window-x="0"
   inkscape:cy="256.58801"
   inkscape:cx="238.94757"
   inkscape:zoom="0.74715775"
   showgrid="false"
   id="namedview49"
   inkscape:window-height="689"
   inkscape:window-width="1366"
   inkscape:pageshadow="2"
   inkscape:pageopacity="0"
   guidetolerance="10"
   gridtolerance="10"
   objecttolerance="10"
   borderopacity="1"
   bordercolor="#666666"
   pagecolor="#ffffff" />
<path
   id="path2"
   d="m 395.636,221.091 h 93.091 c 12.853,0 23.273,10.42 23.273,23.273 0,12.853 -10.42,23.273 -23.273,23.273 h -93.091 c -12.853,0 -23.273,-10.42 -23.273,-23.273 10e-4,-12.853 10.421,-23.273 23.273,-23.273 z"
   style="fill:#2d50a7" />
<path
   id="path4"
   d="m 23.273,221.091 h 93.091 c 12.853,0 23.273,10.42 23.273,23.273 0,12.853 -10.42,23.273 -23.273,23.273 H 23.273 C 10.42,267.637 0,257.217 0,244.364 0,231.511 10.42,221.091 23.273,221.091 Z"
   style="fill:#73a1fb" />
<path
   id="path6"
   d="m 371.195,326.645 65.825,65.826 c 9.089,9.089 9.089,23.823 0,32.912 -4.544,4.544 -10.501,6.816 -16.457,6.816 -5.956,0 -11.913,-2.273 -16.455,-6.816 l -65.825,-65.826 c -9.089,-9.089 -9.089,-23.824 0,-32.912 9.089,-9.088 23.825,-9.089 32.912,0 z"
   style="fill:#355ec9" />
<g
   transform="matrix(-1,0,0,1,512,0)"
   id="g12">
	<path
   id="path8"
   d="m 256,11.636 c -12.853,0 -23.273,10.42 -23.273,23.273 v 46.545 c 0,12.853 10.42,23.273 23.273,23.273 12.853,0 23.273,-10.42 23.273,-23.273 V 34.909 c 0,-12.853 -10.42,-23.273 -23.273,-23.273 z"
   style="fill:#c4d9fd" />
	<path
   id="path10"
   d="M 404.105,63.344 338.28,129.17 c -9.089,9.089 -9.089,23.824 0,32.912 4.544,4.544 10.501,6.817 16.457,6.817 5.956,0 11.913,-2.273 16.455,-6.817 l 65.825,-65.826 c 9.089,-9.089 9.089,-23.824 0,-32.912 -9.087,-9.089 -23.825,-9.089 -32.912,0 z"
   style="fill:#c4d9fd" />
</g>
<path
   id="path14"
   d="m 256,360.727 c 12.853,0 23.273,10.42 23.273,23.273 v 93.091 c 0,12.853 -10.42,23.273 -23.273,23.273 -12.853,0 -23.273,-10.42 -23.273,-23.273 V 384 c 0,-12.853 10.42,-23.273 23.273,-23.273 z"
   style="fill:#3d6deb" />
<path
   id="path16"
   d="m 140.808,326.645 c 9.086,-9.089 23.824,-9.089 32.912,0 9.089,9.087 9.089,23.824 0,32.912 l -65.825,65.826 c -4.544,4.544 -10.501,6.816 -16.457,6.816 -5.955,0 -11.913,-2.273 -16.455,-6.816 -9.089,-9.089 -9.089,-23.824 0,-32.912 z"
   style="fill:#5286fa" />
<g
   transform="matrix(-1,0,0,1,512,0)"
   id="g18">
</g>
<g
   transform="matrix(-1,0,0,1,512,0)"
   id="g20">
</g>
<g
   transform="matrix(-1,0,0,1,512,0)"
   id="g22">
</g>
<g
   transform="matrix(-1,0,0,1,512,0)"
   id="g24">
</g>
<g
   transform="matrix(-1,0,0,1,512,0)"
   id="g26">
</g>
<g
   transform="matrix(-1,0,0,1,512,0)"
   id="g28">
</g>
<g
   transform="matrix(-1,0,0,1,512,0)"
   id="g30">
</g>
<g
   transform="matrix(-1,0,0,1,512,0)"
   id="g32">
</g>
<g
   transform="matrix(-1,0,0,1,512,0)"
   id="g34">
</g>
<g
   transform="matrix(-1,0,0,1,512,0)"
   id="g36">
</g>
<g
   transform="matrix(-1,0,0,1,512,0)"
   id="g38">
</g>
<g
   transform="matrix(-1,0,0,1,512,0)"
   id="g40">
</g>
<g
   transform="matrix(-1,0,0,1,512,0)"
   id="g42">
</g>
<g
   transform="matrix(-1,0,0,1,512,0)"
   id="g44">
</g>
<g
   transform="matrix(-1,0,0,1,512,0)"
   id="g46">
</g>
</svg>
