<?xml version="1.0" encoding="UTF-8" standalone="no"?>
<!-- Created with Inkscape (http://www.inkscape.org/) -->

<svg
   xmlns:dc="http://purl.org/dc/elements/1.1/"
   xmlns:cc="http://creativecommons.org/ns#"
   xmlns:rdf="http://www.w3.org/1999/02/22-rdf-syntax-ns#"
   xmlns:svg="http://www.w3.org/2000/svg"
   xmlns="http://www.w3.org/2000/svg"
   xmlns:xlink="http://www.w3.org/1999/xlink"
   xmlns:sodipodi="http://sodipodi.sourceforge.net/DTD/sodipodi-0.dtd"
   xmlns:inkscape="http://www.inkscape.org/namespaces/inkscape"
   width="1212.4413"
   height="1076.3342"
   viewBox="0 0 320.79175 284.78011"
   version="1.1"
   id="svg6177"
   sodipodi:docname="planet-ring.svg"
   inkscape:version="0.92.4 (fd57863, 2020-04-02)">
  <defs
     id="defs6171">
    <linearGradient
       inkscape:collect="always"
       id="linearGradient7187">
      <stop
         style="stop-color:#ffcc00;stop-opacity:1"
         offset="0"
         id="stop7183" />
      <stop
         style="stop-color:#ff7f2a;stop-opacity:1"
         offset="1"
         id="stop7185" />
    </linearGradient>
    <linearGradient
       inkscape:collect="always"
       id="linearGradient7179">
      <stop
         style="stop-color:#80e5ff;stop-opacity:1;"
         offset="0"
         id="stop7175" />
      <stop
         style="stop-color:#e9c6af;stop-opacity:1"
         offset="1"
         id="stop7177" />
    </linearGradient>
    <linearGradient
       inkscape:collect="always"
       id="linearGradient7163">
      <stop
         style="stop-color:#ffaacc;stop-opacity:1;"
         offset="0"
         id="stop7159" />
      <stop
         style="stop-color:#93ac9d;stop-opacity:1"
         offset="1"
         id="stop7161" />
    </linearGradient>
    <linearGradient
       inkscape:collect="always"
       id="linearGradient7155">
      <stop
         style="stop-color:#b7bec8;stop-opacity:1;"
         offset="0"
         id="stop7151" />
      <stop
         style="stop-color:#80b3ff;stop-opacity:1"
         offset="1"
         id="stop7153" />
    </linearGradient>
    <linearGradient
       inkscape:collect="always"
       id="linearGradient7147">
      <stop
         style="stop-color:#6600ff;stop-opacity:1;"
         offset="0"
         id="stop7143" />
      <stop
         style="stop-color:#6600ff;stop-opacity:0;"
         offset="1"
         id="stop7145" />
    </linearGradient>
    <linearGradient
       inkscape:collect="always"
       id="linearGradient7116">
      <stop
         style="stop-color:#6600ff;stop-opacity:1;"
         offset="0"
         id="stop7112" />
      <stop
         style="stop-color:#87aade;stop-opacity:1"
         offset="1"
         id="stop7114" />
    </linearGradient>
    <linearGradient
       inkscape:collect="always"
       id="linearGradient7108">
      <stop
         style="stop-color:#5599ff;stop-opacity:1;"
         offset="0"
         id="stop7104" />
      <stop
         style="stop-color:#00ccff;stop-opacity:1"
         offset="1"
         id="stop7106" />
    </linearGradient>
    <linearGradient
       inkscape:collect="always"
       xlink:href="#linearGradient7108"
       id="linearGradient7110"
       x1="248.66817"
       y1="-0.88809729"
       x2="248.66817"
       y2="206.00066"
       gradientUnits="userSpaceOnUse"
       gradientTransform="scale(3.7795274)" />
    <linearGradient
       inkscape:collect="always"
       xlink:href="#linearGradient7116"
       id="linearGradient7118"
       x1="251.23183"
       y1="42.773617"
       x2="248.084"
       y2="185.67612"
       gradientUnits="userSpaceOnUse"
       gradientTransform="scale(3.7795274)" />
    <linearGradient
       inkscape:collect="always"
       xlink:href="#linearGradient7147"
       id="linearGradient7149"
       x1="360.19855"
       y1="185.98404"
       x2="400.01947"
       y2="185.98404"
       gradientUnits="userSpaceOnUse" />
    <linearGradient
       inkscape:collect="always"
       xlink:href="#linearGradient7155"
       id="linearGradient7157"
       x1="269.69641"
       y1="232.74348"
       x2="294.43365"
       y2="232.74348"
       gradientUnits="userSpaceOnUse" />
    <linearGradient
       inkscape:collect="always"
       xlink:href="#linearGradient7163"
       id="linearGradient7165"
       x1="108.60258"
       y1="201.97275"
       x2="133.33983"
       y2="201.97275"
       gradientUnits="userSpaceOnUse" />
    <linearGradient
       inkscape:collect="always"
       xlink:href="#linearGradient7179"
       id="linearGradient7181"
       x1="87.485413"
       y1="33.035404"
       x2="112.22267"
       y2="33.035404"
       gradientUnits="userSpaceOnUse" />
    <linearGradient
       inkscape:collect="always"
       xlink:href="#linearGradient7187"
       id="linearGradient7189"
       x1="134.54652"
       y1="-27.29936"
       x2="159.28378"
       y2="-27.29936"
       gradientUnits="userSpaceOnUse" />
  </defs>
  <sodipodi:namedview
     id="base"
     pagecolor="#ffffff"
     bordercolor="#666666"
     borderopacity="1.0"
     inkscape:pageopacity="0.0"
     inkscape:pageshadow="2"
     inkscape:zoom="0.33589188"
     inkscape:cx="846.55883"
     inkscape:cy="447.54555"
     inkscape:document-units="px"
     inkscape:current-layer="layer1"
     showgrid="false"
     units="px"
     showborder="true"
     inkscape:window-width="1366"
     inkscape:window-height="705"
     inkscape:window-x="0"
     inkscape:window-y="27"
     inkscape:window-maximized="1" />
  <metadata
     id="metadata6174">
    <rdf:RDF>
      <cc:Work
         rdf:about="">
        <dc:format>image/svg+xml</dc:format>
        <dc:type
           rdf:resource="http://purl.org/dc/dcmitype/StillImage" />
        <dc:title></dc:title>
      </cc:Work>
    </rdf:RDF>
  </metadata>
  <g
     inkscape:label="Camada 1"
     inkscape:groupmode="layer"
     id="layer1"
     transform="translate(-79.227721,39.667988)">
    <g
       id="g7198">
      <path
         id="path6818"
         transform="scale(0.26458333)"
         d="M 927.72266,-3.3085938 A 389.41303,389.41303 0 0 0 538.31055,386.10547 389.41303,389.41303 0 0 0 927.72266,775.51758 389.41303,389.41303 0 0 0 1317.1367,386.10547 389.41303,389.41303 0 0 0 1187.0254,96.308594 41.046645,41.046645 0 0 1 1185.791,96.353516 41.046645,41.046645 0 0 1 1145.7168,63.957031 389.41303,389.41303 0 0 0 1003.0547,4.1464844 41.046644,41.046644 0 0 1 973.7168,16.541016 41.046644,41.046644 0 0 1 938.9375,-2.7480469 389.41303,389.41303 0 0 0 927.72266,-3.3085938 Z"
         style="opacity:1;fill:url(#linearGradient7110);fill-opacity:1;stroke:none;stroke-width:0.5999999;stroke-linecap:round;stroke-miterlimit:4;stroke-dasharray:none;stroke-opacity:1"
         inkscape:connector-curvature="0" />
      <path
         id="path6816"
         transform="scale(0.26458333)"
         d="m 949.53711,161.66406 a 577.98447,270.84161 0 0 1 34.05664,2.32032 577.98447,270.84161 0 0 0 -34.05664,-2.32032 z m 53.87499,4.4043 a 577.98447,270.84161 0 0 1 37.1953,4.3457 577.98447,270.84161 0 0 0 -37.1953,-4.3457 z m 52.8359,6.78125 a 577.98447,270.84161 0 0 1 39.7012,6.67187 577.98447,270.84161 0 0 0 -39.7012,-6.67187 z m 51.3047,9.10351 a 577.98447,270.84161 0 0 1 41.4317,9.2461 577.98447,270.84161 0 0 0 -41.4317,-9.2461 z m 49.3848,11.38282 a 577.98447,270.84161 0 0 1 42.2148,11.97265 577.98447,270.84161 0 0 0 -42.2148,-11.97265 z m -570.45508,3.00781 a 577.98447,270.84161 0 0 0 -287.03906,233.70703 577.98447,270.84161 0 0 0 2.64648,24.76953 41.046644,41.046644 0 0 1 5.75977,-0.44922 41.046644,41.046644 0 0 1 41.04687,41.04688 41.046644,41.046644 0 0 1 -12.27539,29.25976 577.98447,270.84161 0 0 0 48.03321,46.09961 41.046645,41.046645 0 0 1 18.9707,-4.66796 41.046645,41.046645 0 0 1 41.04688,41.04687 41.046645,41.046645 0 0 1 -0.0762,1.51758 577.98447,270.84161 0 0 0 432.83203,92.21875 577.98447,270.84161 0 0 0 577.98439,-270.8418 577.98447,270.84161 0 0 0 -166.3691,-189.79687 389.41303,389.41303 0 0 1 26.9492,120.13671 403.69877,135.12731 0 0 1 12.2773,32.51758 A 403.69877,135.12731 0 0 1 924.57031,528.03516 403.69877,135.12731 0 0 1 520.87109,392.9082 403.69877,135.12731 0 0 1 539.61523,352.32227 389.41303,389.41303 0 0 1 586.48242,196.34375 Z m 617.52538,10.5918 a 577.98447,270.84161 0 0 1 42.0254,14.79492 577.98447,270.84161 0 0 0 -42.0254,-14.79492 z m -279.43749,50.8457 a 403.69877,135.12731 0 0 0 -27.13476,0.32031 403.69877,135.12731 0 0 1 27.13476,-0.32031 z m -50.16797,1.2168 a 403.69877,135.12731 0 0 0 -17.21679,0.69922 403.69877,135.12731 0 0 1 17.21679,-0.69922 z m -41.13672,2.45507 a 403.69877,135.12731 0 0 0 -15.36328,1.15235 403.69877,135.12731 0 0 1 15.36328,-1.15235 z m -40.97851,3.95508 a 403.69877,135.12731 0 0 0 -12.59961,1.40039 403.69877,135.12731 0 0 1 12.59961,-1.40039 z m -39.16406,5.32618 a 403.69877,135.12731 0 0 0 -10.23633,1.5332 403.69877,135.12731 0 0 1 10.23633,-1.5332 z m -36.84961,6.58203 a 403.69877,135.12731 0 0 0 -8.39844,1.61328 403.69877,135.12731 0 0 1 8.39844,-1.61328 z m -35.10352,7.93945 a 403.69877,135.12731 0 0 0 -6.11914,1.46484 403.69877,135.12731 0 0 1 6.11914,-1.46484 z m -31.77148,8.92969 a 403.69877,135.12731 0 0 0 -4.73633,1.39062 403.69877,135.12731 0 0 1 4.73633,-1.39062 z m -29.57813,10.22851 a 403.69877,135.12731 0 0 0 -2.71093,0.97461 403.69877,135.12731 0 0 1 2.71093,-0.97461 z m -25.82617,11.04688 a 403.69877,135.12731 0 0 0 -1.41016,0.61914 403.69877,135.12731 0 0 1 1.41016,-0.61914 z m -21.875,11.66601 a 403.69877,135.12731 0 0 0 -0.77148,0.42188 403.69877,135.12731 0 0 1 0.77148,-0.42188 z"
         style="opacity:1;fill:url(#linearGradient7118);fill-opacity:1;stroke:none;stroke-width:0.60961622;stroke-linecap:round;stroke-miterlimit:4;stroke-dasharray:none;stroke-opacity:1"
         inkscape:connector-curvature="0" />
      <circle
         r="19.910473"
         cy="185.98404"
         cx="380.10901"
         id="circle7128"
         style="opacity:1;fill:url(#linearGradient7149);fill-opacity:1;stroke:none;stroke-width:0.23283334;stroke-linecap:round;stroke-miterlimit:4;stroke-dasharray:none;stroke-opacity:1" />
      <circle
         style="opacity:1;fill:url(#linearGradient7157);fill-opacity:1;stroke:none;stroke-width:0.1446389;stroke-linecap:round;stroke-miterlimit:4;stroke-dasharray:none;stroke-opacity:1"
         id="circle7130"
         cx="282.06503"
         cy="232.74348"
         r="12.368628" />
      <circle
         r="12.368628"
         cy="201.97275"
         cx="120.97121"
         id="circle7132"
         style="opacity:1;fill:url(#linearGradient7165);fill-opacity:1;stroke:none;stroke-width:0.1446389;stroke-linecap:round;stroke-miterlimit:4;stroke-dasharray:none;stroke-opacity:1" />
      <circle
         style="opacity:1;fill:url(#linearGradient7181);fill-opacity:1;stroke:none;stroke-width:0.1446389;stroke-linecap:round;stroke-miterlimit:4;stroke-dasharray:none;stroke-opacity:1"
         id="circle7134"
         cx="99.854042"
         cy="33.035404"
         r="12.368628" />
      <circle
         r="12.368628"
         cy="-27.29936"
         cx="146.91516"
         id="circle7136"
         style="opacity:1;fill:url(#linearGradient7189);fill-opacity:1;stroke:none;stroke-width:0.1446389;stroke-linecap:round;stroke-miterlimit:4;stroke-dasharray:none;stroke-opacity:1" />
    </g>
  </g>
</svg>
