<?xml version="1.0" encoding="UTF-8" standalone="no"?>
<svg
   xmlns:dc="http://purl.org/dc/elements/1.1/"
   xmlns:cc="http://creativecommons.org/ns#"
   xmlns:rdf="http://www.w3.org/1999/02/22-rdf-syntax-ns#"
   xmlns:svg="http://www.w3.org/2000/svg"
   xmlns="http://www.w3.org/2000/svg"
   xmlns:sodipodi="http://sodipodi.sourceforge.net/DTD/sodipodi-0.dtd"
   xmlns:inkscape="http://www.inkscape.org/namespaces/inkscape"
   inkscape:version="1.0 (4035a4fb49, 2020-05-01)"
   sodipodi:docname="loader-2.svg"
   xml:space="preserve"
   style="enable-background:new 0 0 512.171 512.171;"
   viewBox="0 0 512.171 512.171"
   y="0px"
   x="0px"
   id="Layer_1"
   version="1.1"><metadata
   id="metadata109"><rdf:RDF><cc:Work
       rdf:about=""><dc:format>image/svg+xml</dc:format><dc:type
         rdf:resource="http://purl.org/dc/dcmitype/StillImage" /></cc:Work></rdf:RDF></metadata><defs
   id="defs107">















	

	

	

	

	

	

	

	

	

	

	

	
</defs><sodipodi:namedview
   inkscape:current-layer="Layer_1"
   inkscape:window-maximized="0"
   inkscape:window-y="0"
   inkscape:window-x="0"
   inkscape:cy="270.37812"
   inkscape:cx="92.915447"
   inkscape:zoom="0.5281439"
   showgrid="false"
   id="namedview105"
   inkscape:window-height="480"
   inkscape:window-width="830"
   inkscape:pageshadow="2"
   inkscape:pageopacity="0"
   guidetolerance="10"
   gridtolerance="10"
   objecttolerance="10"
   borderopacity="1"
   bordercolor="#666666"
   pagecolor="#ffffff" />
<g
   id="g4">
		<path
   d="m 310.87,8.597 c -1.243,-1.988 -3.249,-3.376 -5.547,-3.84 -32.464,-6.314 -65.84,-6.314 -98.304,0 -2.298,0.464 -4.304,1.852 -5.547,3.84 -1.288,2.03 -1.659,4.508 -1.024,6.827 l 21.931,82.773 c 1.126,4.214 5.248,6.9 9.557,6.229 15.89,-2.475 32.067,-2.475 47.957,0 h 1.28 c 3.967,0.136 7.504,-2.481 8.533,-6.315 l 22.187,-82.688 c 0.636,-2.317 0.264,-4.796 -1.023,-6.826 z"
   id="path2" />
	</g>
<g
   id="g10">
		<path
   d="M 206.934,102.549 184.747,19.776 c -0.628,-2.278 -2.173,-4.194 -4.267,-5.291 -2.069,-1.12 -4.508,-1.336 -6.741,-0.597 -31.386,10.643 -60.379,27.342 -85.333,49.152 -1.776,1.558 -2.826,3.783 -2.901,6.144 -0.151,2.278 0.617,4.522 2.133,6.229 L 148.224,136 c 1.61,1.597 3.79,2.488 6.059,2.475 1.954,0.008 3.852,-0.654 5.376,-1.877 12.435,-10.117 26.407,-18.184 41.387,-23.893 4.349,-1.284 6.935,-5.744 5.888,-10.156 z"
   id="path8" />
	</g>
<g
   id="g16">
		<path
   d="M 136.192,148.458 75.606,87.872 c -1.673,-1.662 -3.958,-2.558 -6.315,-2.475 -2.327,-0.059 -4.577,0.835 -6.229,2.475 -21.809,24.955 -38.509,53.947 -49.152,85.333 -0.739,2.233 -0.522,4.673 0.597,6.741 1.097,2.093 3.012,3.638 5.291,4.267 l 82.773,22.187 c 0.737,0.084 1.481,0.084 2.219,0 3.518,-0.01 6.669,-2.179 7.936,-5.461 5.736,-14.985 13.831,-28.957 23.979,-41.387 2.587,-3.318 2.37,-8.028 -0.513,-11.094 z"
   id="path14" />
	</g>
<g
   id="g22">
		<path
   d="m 104.448,280.043 c -1.264,-7.93 -1.892,-15.949 -1.877,-23.979 -0.085,-8.111 0.486,-16.216 1.707,-24.235 0.671,-4.31 -2.016,-8.432 -6.229,-9.557 L 15.36,200.085 c -0.179,-0.048 -0.36,-0.091 -0.542,-0.127 -4.622,-0.923 -9.116,2.076 -10.039,6.698 -6.372,32.458 -6.372,65.846 0,98.304 0.823,4.037 4.414,6.91 8.533,6.827 0.737,0.084 1.481,0.084 2.219,0 L 98.219,289.6 c 4.214,-1.126 6.901,-5.248 6.229,-9.557 z"
   id="path20" />
	</g>
<g
   id="g28">
		<path
   d="m 136.704,352.576 c -10.058,-12.557 -18.039,-26.645 -23.637,-41.728 -1.556,-4.076 -5.937,-6.321 -10.155,-5.205 L 20.139,327.83 c -2.278,0.628 -4.194,2.173 -5.291,4.267 -1.12,2.069 -1.336,4.508 -0.597,6.741 10.643,31.386 27.343,60.379 49.152,85.333 1.558,1.776 3.783,2.826 6.144,2.901 2.259,-0.031 4.423,-0.915 6.059,-2.475 l 60.587,-60.587 c 3.08,-3.115 3.301,-8.056 0.511,-11.434 z"
   id="path26" />
	</g>
<g
   id="g34">
		<path
   d="m 201.046,399.509 c -14.985,-5.736 -28.957,-13.831 -41.387,-23.979 -3.318,-2.588 -8.028,-2.371 -11.093,0.512 l -60.587,60.587 c -1.662,1.673 -2.558,3.958 -2.475,6.315 -0.249,2.434 0.559,4.858 2.219,6.656 24.955,21.809 53.947,38.509 85.333,49.152 0.906,0.13 1.825,0.13 2.731,0 1.401,-0.007 2.778,-0.359 4.011,-1.024 2.094,-1.097 3.638,-3.012 4.267,-5.291 l 22.187,-82.773 c 1.115,-4.218 -1.13,-8.598 -5.206,-10.155 z"
   id="path32" />
	</g>

<g
   id="g46">
		<path
   d="m 424.704,436.715 -60.587,-60.587 c -3.092,-3.106 -8.035,-3.365 -11.435,-0.597 -12.429,10.148 -26.401,18.243 -41.387,23.979 -4.076,1.556 -6.321,5.937 -5.205,10.155 l 21.504,82.261 c 0.628,2.278 2.173,4.194 4.267,5.291 1.233,0.665 2.61,1.017 4.011,1.024 0.906,0.13 1.825,0.13 2.731,0 31.386,-10.643 60.379,-27.343 85.333,-49.152 1.776,-1.558 2.826,-3.783 2.901,-6.144 0.152,-2.279 -0.617,-4.523 -2.133,-6.23 z"
   id="path44" />
	</g>
<g
   id="g52">
		<path
   d="m 497.835,332.437 c -1.097,-2.094 -3.012,-3.638 -5.291,-4.267 l -82.773,-22.187 c -4.218,-1.116 -8.598,1.129 -10.155,5.205 -5.736,14.985 -13.831,28.957 -23.979,41.387 -2.937,3.498 -2.598,8.689 0.768,11.776 l 60.587,60.587 c 1.635,1.559 3.799,2.443 6.059,2.475 2.361,-0.075 4.586,-1.125 6.144,-2.901 21.809,-24.955 38.509,-53.947 49.152,-85.333 0.765,-2.222 0.58,-4.661 -0.512,-6.742 z"
   id="path50" />
	</g>
<g
   id="g58">
		<path
   d="m 507.222,207.168 c -0.036,-0.182 -0.079,-0.363 -0.127,-0.542 -1.222,-4.552 -5.903,-7.25 -10.454,-6.028 l -82.688,22.187 c -4.214,1.126 -6.901,5.248 -6.229,9.557 2.503,15.888 2.503,32.069 0,47.957 -0.671,4.31 2.016,8.432 6.229,9.557 l 82.688,22.187 c 0.737,0.084 1.482,0.084 2.219,0 4.12,0.083 7.71,-2.789 8.533,-6.827 3.194,-16.189 4.794,-32.651 4.779,-49.152 -0.058,-16.421 -1.715,-32.797 -4.95,-48.896 z"
   id="path56" />
	</g>
<g
   id="g64">
		<path
   d="m 498.347,173.632 c -10.643,-31.386 -27.343,-60.379 -49.152,-85.333 -1.558,-1.776 -3.783,-2.826 -6.144,-2.901 -2.286,-0.213 -4.554,0.563 -6.229,2.133 l -60.587,60.587 c -3.106,3.092 -3.365,8.035 -0.597,11.435 10.124,12.351 18.218,26.235 23.979,41.131 1.267,3.282 4.418,5.451 7.936,5.461 0.737,0.084 1.482,0.084 2.219,0 l 82.688,-22.187 c 2.278,-0.628 4.194,-2.173 5.291,-4.267 0.936,-1.878 1.149,-4.035 0.596,-6.059 z"
   id="path62" />
	</g>
<g
   id="g70">
		<path
   d="M 424.619,62.954 C 399.664,41.145 370.672,24.445 339.286,13.802 c -2.233,-0.739 -4.673,-0.522 -6.741,0.597 -2.094,1.097 -3.638,3.012 -4.267,5.291 l -22.187,82.773 c -1.208,4.153 0.882,8.552 4.864,10.24 14.985,5.736 28.957,13.831 41.387,23.979 1.524,1.223 3.422,1.886 5.376,1.877 2.268,0.013 4.448,-0.877 6.059,-2.475 l 60.587,-60.587 c 1.662,-1.673 2.558,-3.958 2.475,-6.315 0.127,-2.288 -0.673,-4.534 -2.22,-6.228 z"
   id="path68" />
	</g>















</svg>
