<?xml version="1.0" encoding="UTF-8" standalone="no"?>
<svg
   xmlns:dc="http://purl.org/dc/elements/1.1/"
   xmlns:cc="http://creativecommons.org/ns#"
   xmlns:rdf="http://www.w3.org/1999/02/22-rdf-syntax-ns#"
   xmlns:svg="http://www.w3.org/2000/svg"
   xmlns="http://www.w3.org/2000/svg"
   xmlns:sodipodi="http://sodipodi.sourceforge.net/DTD/sodipodi-0.dtd"
   xmlns:inkscape="http://www.inkscape.org/namespaces/inkscape"
   inkscape:version="1.0 (4035a4fb49, 2020-05-01)"
   sodipodi:docname="loader-1.svg"
   xml:space="preserve"
   style="enable-background:new 0 0 512.001 512.001;"
   viewBox="0 0 512.001 512.001"
   y="0px"
   x="0px"
   id="Layer_1"
   version="1.1"><metadata
   id="metadata63"><rdf:RDF><cc:Work
       rdf:about=""><dc:format>image/svg+xml</dc:format><dc:type
         rdf:resource="http://purl.org/dc/dcmitype/StillImage" /></cc:Work></rdf:RDF></metadata><defs
   id="defs61">
	
	
	
	
	
	
	
	
	
	
	
	
</defs><sodipodi:namedview
   inkscape:current-layer="Layer_1"
   inkscape:window-maximized="0"
   inkscape:window-y="0"
   inkscape:window-x="0"
   inkscape:cy="276.38661"
   inkscape:cx="105.63549"
   inkscape:zoom="0.52831931"
   showgrid="false"
   id="namedview59"
   inkscape:window-height="480"
   inkscape:window-width="830"
   inkscape:pageshadow="2"
   inkscape:pageopacity="0"
   guidetolerance="10"
   gridtolerance="10"
   objecttolerance="10"
   borderopacity="1"
   bordercolor="#666666"
   pagecolor="#ffffff" />
<path
   style="fill:#65ddb9"
   d="m 305.081,4.767 -22.599,85.539 c -17.311,-2.71 -34.948,-2.71 -52.259,0 L 207.272,4.767 c 32.415,-6.356 65.748,-6.356 98.163,0 -10e-4,0 -0.354,0 -0.354,0 z"
   id="path2" /><path
   style="fill:#65ddb9"
   d="m 195.796,99.487 c -16.384,6.356 -31.638,15.298 -45.197,26.483 L 88.276,62.941 C 113.117,41.207 141.965,24.532 173.197,13.86 Z"
   id="path4" /><path
   style="fill:#65ddb9"
   d="m 125.617,150.599 c -11.185,13.559 -20.127,28.813 -26.483,45.197 L 13.506,172.844 C 24.329,141.709 41.119,112.984 62.94,88.276 Z"
   id="path6" /><path
   style="fill:#65ddb9"
   d="m 88.276,256 c -0.018,8.863 0.662,17.726 2.03,26.483 L 4.767,305.435 c -6.356,-32.415 -6.356,-65.748 0,-98.163 l 85.539,22.246 c -1.368,8.765 -2.048,17.619 -2.03,26.482 z"
   id="path8" /><path
   style="fill:#65ddb9"
   d="M 125.617,361.402 62.941,423.725 C 41.207,398.884 24.532,370.036 13.86,338.804 l 85.628,-22.952 c 6.214,16.48 15.041,31.867 26.129,45.55 z"
   id="path10" /><path
   style="fill:#65ddb9"
   d="m 195.796,412.513 -22.952,85.628 C 141.736,487.424 113.011,470.749 88.276,449.06 l 62.676,-62.676 c 13.471,11.025 28.61,19.844 44.844,26.129 z"
   id="path12" /><path
   style="fill:#65ddb9"
   d="m 423.724,449.06 c -24.841,21.734 -53.689,38.409 -84.921,49.081 l -22.952,-85.628 c 16.384,-6.356 31.638,-15.298 45.197,-26.483 z"
   id="path16" /><path
   style="fill:#65ddb9"
   d="m 498.141,339.156 c -10.717,31.108 -27.392,59.833 -49.081,84.568 l -62.676,-62.676 c 11.185,-13.559 20.127,-28.813 26.483,-45.197 z"
   id="path18" /><path
   style="fill:#65ddb9"
   d="m 512,256 c 0.035,16.481 -1.562,32.918 -4.767,49.081 l -85.539,-22.599 c 2.71,-17.311 2.71,-34.948 0,-52.259 l 85.539,-22.952 c 3.178,16.05 4.776,32.372 4.767,48.729 z"
   id="path20" /><path
   style="fill:#65ddb9"
   d="m 498.141,172.844 -85.628,22.952 c -6.356,-16.384 -15.298,-31.638 -26.483,-45.197 l 62.676,-62.676 c 21.857,24.814 38.656,53.663 49.435,84.921 z"
   id="path22" /><path
   style="fill:#65ddb9"
   d="m 423.724,62.941 -62.676,62.676 C 347.489,114.432 332.235,105.49 315.851,99.134 l 22.952,-85.628 c 31.258,10.788 60.107,27.578 84.921,49.435 z"
   id="path24" />
<g
   id="g28">
</g>
<g
   id="g30">
</g>
<g
   id="g32">
</g>
<g
   id="g34">
</g>
<g
   id="g36">
</g>
<g
   id="g38">
</g>
<g
   id="g40">
</g>
<g
   id="g42">
</g>
<g
   id="g44">
</g>
<g
   id="g46">
</g>
<g
   id="g48">
</g>
<g
   id="g50">
</g>
<g
   id="g52">
</g>
<g
   id="g54">
</g>
<g
   id="g56">
</g>
</svg>
